<?xml version="1.0" encoding="utf-8"?>
<!-- Generator: Adobe Illustrator 19.0.0, SVG Export Plug-In . SVG Version: 6.00 Build 0)  -->
<svg version="1.1" id="Layer_1" xmlns="http://www.w3.org/2000/svg" xmlns:xlink="http://www.w3.org/1999/xlink" x="0px" y="0px"
	 viewBox="0 0 276 66" style="enable-background:new 0 0 276 66;" xml:space="preserve">
<style type="text/css">
	.st0{filter:url(#Adobe_OpacityMaskFilter);}
	.st1{mask:url(#XMLID_37_);}
	.st2{opacity:0.7;clip-path:url(#XMLID_39_);fill:#FFFFFF;}
	.st3{fill:#104285;}
	.st4{filter:url(#Adobe_OpacityMaskFilter_1_);}
	.st5{mask:url(#XMLID_40_);}
	.st6{opacity:0.7;clip-path:url(#XMLID_42_);fill:#FFFFFF;}
	.st7{clip-path:url(#XMLID_43_);fill:#AC182D;}
	.st8{filter:url(#Adobe_OpacityMaskFilter_2_);}
	.st9{mask:url(#XMLID_44_);}
	.st10{opacity:0.7;clip-path:url(#XMLID_46_);fill:#FFFFFF;}
	.st11{filter:url(#Adobe_OpacityMaskFilter_3_);}
	.st12{mask:url(#XMLID_47_);}
	.st13{opacity:0.7;clip-path:url(#XMLID_49_);fill:#FFFFFF;}
	.st14{clip-path:url(#XMLID_50_);fill:#AC182D;}
	.st15{clip-path:url(#XMLID_69_);fill:#104285;}
</style>
<g id="XMLID_33_">
	<defs>
		<filter id="Adobe_OpacityMaskFilter" filterUnits="userSpaceOnUse" x="175.6" y="32.2" width="93.8" height="18.1">
			<feColorMatrix  type="matrix" values="1 0 0 0 0  0 1 0 0 0  0 0 1 0 0  0 0 0 1 0"/>
		</filter>
	</defs>
	<mask maskUnits="userSpaceOnUse" x="175.6" y="32.2" width="93.8" height="18.1" id="XMLID_37_">
		<g id="XMLID_314_" class="st0">
			<g id="XMLID_315_">
				<defs>
					<rect id="XMLID_228_" x="174.3" y="30.9" width="96.7" height="20.9"/>
				</defs>
				<clipPath id="XMLID_38_">
					<use xlink:href="#XMLID_228_"  style="overflow:visible;"/>
				</clipPath>
				<g style="clip-path:url(#XMLID_38_);">
					
						<image style="overflow:visible;" width="305" height="66" id="XMLID_229_" xlink:href="5FB9E0BD.jpg"  transform="matrix(0.3171 0 0 0.3171 174.3291 30.9123)">
					</image>
				</g>
			</g>
		</g>
	</mask>
	<g id="XMLID_318_" class="st1">
		<g id="XMLID_319_">
			<defs>
				<rect id="XMLID_230_" x="175.6" y="32.2" width="93.8" height="18.1"/>
			</defs>
			<clipPath id="XMLID_39_">
				<use xlink:href="#XMLID_230_"  style="overflow:visible;"/>
			</clipPath>
			<rect id="XMLID_231_" x="175.6" y="32.2" class="st2" width="93.8" height="18.1"/>
		</g>
	</g>
	<path id="XMLID_298_" class="st3" d="M267,44.5c0.2,0.2,0.5,0.3,0.8,0.3c0.4,0,0.7-0.1,0.9-0.4c0.2-0.3,0.4-0.6,0.4-1.1
		c0-0.4-0.1-0.6-0.3-0.8c-0.2-0.2-0.5-0.3-0.8-0.3c-0.4,0-0.7,0.1-0.9,0.4c-0.2,0.3-0.4,0.6-0.4,1.1C266.7,44.1,266.8,44.3,267,44.5
		 M260.5,44.7c0.3,0.1,0.6,0.1,1,0.1c0.8,0,1.5-0.2,2.1-0.5c0.6-0.4,1.1-0.7,1.4-1.1c0.3-0.4,0.5-0.8,0.5-1.3c0-0.5-0.1-0.9-0.4-1.2
		c-0.3-0.3-0.7-0.5-1.3-0.6l-0.5-0.1c-0.7-0.1-1.1-0.3-1.3-0.5c-0.2-0.2-0.4-0.5-0.4-0.8c0-0.3,0.1-0.6,0.4-0.8
		c0.2-0.2,0.6-0.3,1-0.3c0.3,0,0.6,0.1,0.9,0.2c0.3,0.1,0.6,0.3,1,0.6l0.1,0.8h0.5c0.1-0.7,0.2-1.4,0.3-2c-0.3-0.2-0.7-0.3-1-0.4
		c-0.3-0.1-0.6-0.1-1-0.1c-1,0-2.1,0.5-3.1,1.4c-0.5,0.4-0.7,0.9-0.7,1.6c0,0.6,0.2,1,0.6,1.3c0.2,0.2,0.7,0.4,1.4,0.5l0.7,0.1
		c0.4,0.1,0.7,0.2,0.9,0.4c0.2,0.2,0.3,0.4,0.3,0.7c0,0.4-0.1,0.7-0.4,0.9c-0.3,0.2-0.6,0.3-1.2,0.3c-0.4,0-0.8-0.1-1.2-0.3
		c-0.4-0.2-0.7-0.4-0.9-0.7l0-0.8h-0.5c0,0.7-0.2,1.5-0.4,2.2C259.8,44.6,260.2,44.7,260.5,44.7 M251,44.5c0.2,0.2,0.5,0.3,0.8,0.3
		c0.4,0,0.7-0.1,0.9-0.4c0.2-0.3,0.4-0.6,0.4-1.1c0-0.4-0.1-0.6-0.3-0.8c-0.2-0.2-0.5-0.3-0.8-0.3c-0.4,0-0.7,0.1-0.9,0.4
		c-0.2,0.3-0.4,0.6-0.4,1.1C250.7,44.1,250.8,44.3,251,44.5 M247.3,38.2c-0.1,0.5-0.3,1.1-0.6,1.8c-0.3,0.7-0.7,1.3-1.2,2
		c-0.5,0.6-0.9,1.1-1.3,1.3c-0.1,0.1-0.3,0.1-0.3,0.1c-0.1,0-0.2,0-0.2-0.1c-0.1-0.1-0.1-0.2-0.1-0.4c0-0.7,0.2-1.7,0.6-3.1
		c0.3-1,0.6-1.7,0.9-1.9c0.3-0.3,0.6-0.4,1-0.4c0.2,0,0.4,0,0.7,0.1c0.2,0.1,0.5,0.2,0.7,0.3L247.3,38.2z M248.2,43.4
		c-0.1,0-0.2-0.1-0.2-0.3c0-0.2,0-0.5,0.1-0.8l0.9-4l0.3-1.1c0.1-0.2,0.1-0.4,0.2-0.5l-0.3-0.2l-0.8,0.4c-0.3-0.1-0.6-0.2-0.9-0.3
		c-0.3-0.1-0.6-0.1-0.9-0.1c-0.4,0-0.8,0.1-1.2,0.2c-0.4,0.2-1,0.6-1.9,1.3c-0.5,0.4-0.8,0.7-0.9,0.9c-0.3,0.5-0.5,1.2-0.8,2.1
		c-0.2,0.9-0.4,1.6-0.4,2.3c0,0.5,0.1,0.9,0.3,1.1c0.2,0.2,0.4,0.3,0.7,0.3c0.2,0,0.4,0,0.6-0.1c0.4-0.2,0.8-0.4,1.1-0.7
		c0.4-0.3,0.8-0.7,1.2-1.3c0.3-0.3,0.7-1,1.4-2.1l-0.1,0.6c-0.4,1.5-0.6,2.5-0.6,2.8c0,0.2,0.1,0.4,0.2,0.6c0.1,0.1,0.2,0.2,0.4,0.2
		c0.6,0,1.5-0.6,2.9-1.7l-0.2-0.5C248.9,43.1,248.5,43.4,248.2,43.4 M228.5,38.6c0.2-0.4,0.4-0.8,0.7-0.9c0.2-0.2,0.5-0.3,0.8-0.3
		c0.2,0,0.4,0.1,0.6,0.2c0.1,0.1,0.2,0.3,0.2,0.6c0,0.3-0.1,0.7-0.3,1.1c-0.2,0.4-0.5,0.7-0.8,0.9c-0.3,0.2-0.9,0.4-1.8,0.7
		C228.1,39.7,228.3,39,228.5,38.6 M230.1,43.4c-0.5,0.2-0.9,0.3-1.2,0.3c-0.4,0-0.7-0.1-1-0.3c-0.2-0.2-0.3-0.5-0.3-1
		c0-0.4,0.1-0.7,0.2-1.1c1.1-0.2,2-0.4,2.7-0.8c0.7-0.4,1.2-0.7,1.5-1.2c0.3-0.4,0.4-0.9,0.4-1.4c0-0.4-0.1-0.7-0.4-1
		c-0.3-0.3-0.7-0.4-1.2-0.4c-0.5,0-1.1,0.1-1.6,0.4c-0.9,0.5-1.6,0.9-2,1.4s-0.7,1-0.9,1.7c-0.3,1-0.5,1.9-0.5,2.7
		c0,0.7,0.2,1.2,0.5,1.5c0.4,0.4,0.9,0.5,1.6,0.5c0.3,0,0.7-0.1,1.1-0.2c0.4-0.1,0.9-0.4,1.5-0.7l1.4-0.9l-0.2-0.5
		C231.1,42.9,230.6,43.2,230.1,43.4 M222.8,43.4c-0.5,0.2-1,0.3-1.3,0.3c-0.4,0-0.7-0.1-0.9-0.4c-0.2-0.3-0.4-0.7-0.4-1.2
		c0-0.8,0.2-1.7,0.5-2.8c0.2-0.7,0.5-1.1,0.8-1.4c0.2-0.2,0.6-0.3,1-0.3c0.3,0,0.6,0.1,0.8,0.2c0.3,0.1,0.5,0.3,0.7,0.5l0,0.3
		c0,0.2,0,0.4-0.1,0.9h0.6c0.2-1,0.4-1.8,0.6-2.4c-0.3-0.1-0.7-0.2-1-0.3c-0.3-0.1-0.6-0.1-0.8-0.1c-0.5,0-1,0.1-1.4,0.3l-1.5,0.9
		c-0.5,0.3-0.9,0.7-1.2,1.1c-0.3,0.4-0.5,0.9-0.7,1.7c-0.2,0.7-0.3,1.4-0.3,2.1c0,0.7,0.2,1.3,0.6,1.7c0.4,0.4,0.9,0.6,1.6,0.6
		c0.5,0,1-0.1,1.5-0.3c0.6-0.2,1.4-0.7,2.5-1.5l-0.2-0.5C223.8,42.9,223.4,43.2,222.8,43.4 M210.7,44.5c0.2-1.2,0.5-2.3,0.9-3.2
		c0.4-0.9,1-1.7,1.6-2.4c0.5-0.5,0.8-0.7,1.1-0.7c0.1,0,0.2,0,0.2,0.1c0.1,0.1,0.1,0.1,0.1,0.2c0,0.2-0.1,0.6-0.2,1.2
		c-0.1,0.3-0.2,0.8-0.4,1.6l-0.3,0.9c-0.2,0.8-0.3,1.3-0.3,1.7c0,0.3,0,0.6,0.1,0.7c0.1,0.1,0.3,0.2,0.5,0.2c0.3,0,0.7-0.1,1.1-0.4
		c0.3-0.2,1-0.6,2-1.3l-0.2-0.5c-0.2,0.2-0.5,0.4-0.8,0.6c-0.2,0.1-0.3,0.2-0.4,0.2c-0.1,0-0.2-0.1-0.2-0.3c0-0.5,0.1-1.1,0.3-1.9
		l0.4-1.5c0.3-1.2,0.5-2,0.5-2.3c0-0.2-0.1-0.4-0.2-0.6c-0.1-0.1-0.3-0.2-0.5-0.2c-0.2,0-0.5,0.1-0.9,0.2c-0.5,0.2-1,0.5-1.5,1
		c-0.5,0.4-1,1-1.5,1.5c-0.1,0.2-0.4,0.6-0.9,1.3l0.3-1.2c0.1-0.5,0.3-1.1,0.4-1.7c0-0.2,0.1-0.4,0.1-0.6c0-0.2,0-0.3-0.1-0.4
		c-0.1-0.1-0.2-0.1-0.4-0.1c-0.2,0-0.4,0-0.6,0.1c-0.4,0.2-0.8,0.4-1.4,0.8l-1.2,0.9l0.2,0.4c0.3-0.2,0.6-0.4,0.9-0.6
		c0.2-0.1,0.3-0.1,0.4-0.1c0.1,0,0.2,0.1,0.2,0.3c0,0.2-0.1,0.7-0.2,1.4c-0.1,0.7-0.3,1.4-0.5,2.1c-0.1,0.4-0.3,1-0.6,1.9
		c-0.1,0.2-0.2,0.5-0.3,0.8l0.2,0.2C209.4,44.7,210,44.5,210.7,44.5 M205,38.2c-0.1,0.5-0.3,1.1-0.6,1.8c-0.3,0.7-0.7,1.3-1.2,2
		c-0.5,0.6-0.9,1.1-1.3,1.3c-0.1,0.1-0.3,0.1-0.3,0.1c-0.1,0-0.2,0-0.2-0.1c-0.1-0.1-0.1-0.2-0.1-0.4c0-0.7,0.2-1.7,0.6-3.1
		c0.3-1,0.6-1.7,0.9-1.9c0.3-0.3,0.6-0.4,1-0.4c0.2,0,0.4,0,0.7,0.1c0.2,0.1,0.5,0.2,0.7,0.3L205,38.2z M205.9,43.4
		c-0.1,0-0.2-0.1-0.2-0.3c0-0.2,0-0.5,0.1-0.8l0.9-4l0.3-1.1c0.1-0.2,0.1-0.4,0.2-0.5l-0.3-0.2l-0.8,0.4c-0.3-0.1-0.6-0.2-0.9-0.3
		c-0.3-0.1-0.6-0.1-0.9-0.1c-0.4,0-0.8,0.1-1.2,0.2c-0.4,0.2-1,0.6-1.9,1.3c-0.5,0.4-0.8,0.7-0.9,0.9c-0.3,0.5-0.5,1.2-0.8,2.1
		c-0.2,0.9-0.4,1.6-0.4,2.3c0,0.5,0.1,0.9,0.3,1.1c0.2,0.2,0.4,0.3,0.7,0.3c0.2,0,0.4,0,0.6-0.1c0.4-0.2,0.8-0.4,1.1-0.7
		c0.4-0.3,0.8-0.7,1.2-1.3c0.3-0.3,0.7-1,1.4-2.1l-0.1,0.6c-0.4,1.5-0.6,2.5-0.6,2.8c0,0.2,0.1,0.4,0.2,0.6c0.1,0.1,0.2,0.2,0.4,0.2
		c0.6,0,1.5-0.6,2.9-1.7l-0.2-0.5C206.6,43.1,206.2,43.4,205.9,43.4 M191.9,44.5c0.2-1.2,0.5-2.3,0.9-3.2c0.4-0.9,1-1.7,1.6-2.4
		c0.5-0.5,0.8-0.7,1.1-0.7c0.1,0,0.2,0,0.2,0.1c0.1,0.1,0.1,0.1,0.1,0.2c0,0.2-0.1,0.6-0.2,1.2c-0.1,0.3-0.2,0.8-0.4,1.6l-0.3,0.9
		c-0.2,0.8-0.3,1.3-0.3,1.7c0,0.3,0,0.6,0.1,0.7c0.1,0.1,0.3,0.2,0.5,0.2c0.3,0,0.7-0.1,1.1-0.4c0.3-0.2,1-0.6,2-1.3l-0.2-0.5
		c-0.2,0.2-0.5,0.4-0.8,0.6c-0.2,0.1-0.3,0.2-0.4,0.2c-0.1,0-0.2-0.1-0.2-0.3c0-0.5,0.1-1.1,0.3-1.9l0.4-1.5c0.3-1.2,0.5-2,0.5-2.3
		c0-0.2-0.1-0.4-0.2-0.6c-0.1-0.1-0.3-0.2-0.5-0.2c-0.2,0-0.5,0.1-0.9,0.2c-0.5,0.2-1,0.5-1.5,1c-0.5,0.4-1,1-1.5,1.5
		c-0.1,0.2-0.4,0.6-0.9,1.3l0.3-1.2c0.1-0.5,0.3-1.1,0.4-1.7c0-0.2,0.1-0.4,0.1-0.6c0-0.2,0-0.3-0.1-0.4c-0.1-0.1-0.2-0.1-0.4-0.1
		c-0.2,0-0.4,0-0.6,0.1c-0.4,0.2-0.8,0.4-1.4,0.8l-1.2,0.9l0.2,0.4c0.3-0.2,0.6-0.4,0.9-0.6c0.2-0.1,0.3-0.1,0.4-0.1
		c0.1,0,0.2,0.1,0.2,0.3c0,0.2-0.1,0.7-0.2,1.4c-0.1,0.7-0.3,1.4-0.5,2.1c-0.1,0.4-0.3,1-0.6,1.9c-0.1,0.2-0.2,0.5-0.3,0.8l0.2,0.2
		C190.6,44.7,191.2,44.5,191.9,44.5 M185.9,38.4c0.2-0.1,0.3-0.1,0.4-0.1c0.1,0,0.2,0.1,0.2,0.2c0,0.3-0.1,0.9-0.4,1.9l-0.6,2
		c-0.2,0.6-0.3,1.2-0.3,1.6c0,0.3,0.1,0.5,0.2,0.7c0.1,0.1,0.3,0.2,0.5,0.2c0.1,0,0.3,0,0.4-0.1c0.2-0.1,0.6-0.3,1-0.5l1.7-1.1
		l-0.2-0.4c-0.8,0.5-1.3,0.8-1.4,0.8c-0.2,0-0.2-0.1-0.2-0.3c0-0.4,0.2-1.2,0.6-2.6l0.3-0.9c0.4-1.2,0.5-2,0.5-2.4
		c0-0.2,0-0.4-0.1-0.5c-0.1-0.1-0.2-0.2-0.4-0.2c-0.2,0-0.6,0.1-1,0.3c-0.4,0.2-1.2,0.8-2.5,1.7l0.2,0.4
		C185.1,38.8,185.4,38.6,185.9,38.4 M187.6,34.7c0.2,0.2,0.4,0.3,0.7,0.3c0.3,0,0.6-0.1,0.8-0.4c0.2-0.2,0.3-0.6,0.3-1
		c0-0.3-0.1-0.5-0.3-0.7c-0.2-0.2-0.4-0.3-0.7-0.3c-0.3,0-0.6,0.1-0.8,0.4c-0.2,0.2-0.3,0.6-0.3,1C187.4,34.4,187.5,34.6,187.6,34.7
		 M179.9,37.7l0.8,0l-1.3,6.4l-0.4,2.1c-0.2,0.7-0.3,1.1-0.4,1.3c-0.1,0.2-0.2,0.3-0.3,0.4c-0.1,0.1-0.3,0.1-0.4,0.1
		c-0.4,0-0.6-0.2-0.9-0.7l-0.3,0c-0.1,0.4-0.3,1-0.6,1.8c0.2,0.1,0.4,0.1,0.6,0.1c0.4,0,0.9-0.2,1.5-0.7c0.9-0.7,1.6-1.6,2.1-2.6
		c0.5-1,1-3,1.7-5.8l0.6-2.5l1.1,0l1,0c0-0.2,0.1-0.5,0.3-0.9l-0.1-0.1c-0.2,0-0.4,0.1-0.7,0.1c-0.6,0-1,0.1-1.2,0.1h-0.2
		c0.1-0.3,0.2-1,0.5-2c0.1-0.5,0.3-0.9,0.4-1.1c0.2-0.2,0.4-0.3,0.6-0.3c0.4,0,0.8,0.3,1.3,1l0.2-0.1c0.1-0.6,0.3-1.3,0.5-2.1
		c-0.2-0.1-0.4-0.1-0.7-0.1c-0.3,0-0.6,0.1-0.9,0.2c-0.4,0.2-1,0.6-1.7,1.2c-0.7,0.6-1.2,1.1-1.4,1.4c-0.2,0.3-0.4,0.7-0.5,1.3
		l-0.1,0.4c-0.2,0.1-0.5,0.2-0.9,0.3c-0.4,0.1-0.6,0.2-0.8,0.3l-0.1,0.4L179.9,37.7z"/>
	<defs>
		<filter id="Adobe_OpacityMaskFilter_1_" filterUnits="userSpaceOnUse" x="146.8" y="33" width="27.6" height="12.7">
			<feColorMatrix  type="matrix" values="1 0 0 0 0  0 1 0 0 0  0 0 1 0 0  0 0 0 1 0"/>
		</filter>
	</defs>
	<mask maskUnits="userSpaceOnUse" x="146.8" y="33" width="27.6" height="12.7" id="XMLID_40_">
		<g id="XMLID_290_" class="st4">
			<g id="XMLID_291_">
				<defs>
					<rect id="XMLID_209_" x="145.5" y="31.7" width="30.8" height="15.5"/>
				</defs>
				<clipPath id="XMLID_41_">
					<use xlink:href="#XMLID_209_"  style="overflow:visible;"/>
				</clipPath>
				<g style="clip-path:url(#XMLID_41_);">
					
						<image style="overflow:visible;" width="97" height="49" id="XMLID_210_" xlink:href="5FB9E0C3.jpg"  transform="matrix(0.3171 0 0 0.3171 145.5072 31.7055)">
					</image>
				</g>
			</g>
		</g>
	</mask>
	<g id="XMLID_294_" class="st5">
		<g id="XMLID_295_">
			<defs>
				<rect id="XMLID_211_" x="146.8" y="33" width="27.6" height="12.7"/>
			</defs>
			<clipPath id="XMLID_42_">
				<use xlink:href="#XMLID_211_"  style="overflow:visible;"/>
			</clipPath>
			<rect id="XMLID_212_" x="146.8" y="33" class="st6" width="27.6" height="12.7"/>
		</g>
	</g>
	<g id="XMLID_283_">
		<defs>
			<path id="XMLID_284_" d="M168.6,39.3c0.2-0.8,0.5-1.3,0.8-1.6c0.3-0.3,0.7-0.4,1.1-0.4c0.4,0,0.8,0.2,1.1,0.5
				c0.3,0.3,0.4,0.8,0.4,1.4c0,0.9-0.1,1.8-0.4,2.7c-0.3,0.9-0.6,1.5-1,1.8c-0.3,0.2-0.6,0.4-1,0.4c-0.5,0-0.9-0.1-1.2-0.4
				c-0.3-0.3-0.4-0.8-0.4-1.5C168.1,41.3,168.3,40.3,168.6,39.3 M166.8,44.2c0.4,0.4,1.1,0.6,2,0.6c0.6,0,1.3-0.1,1.8-0.4
				c0.8-0.4,1.5-0.8,2-1.3c0.4-0.4,0.7-0.9,1-1.7c0.3-0.8,0.4-1.5,0.4-2.3c0-0.6-0.1-1.1-0.3-1.5c-0.2-0.4-0.5-0.6-0.9-0.9
				c-0.4-0.2-0.9-0.3-1.6-0.3c-0.8,0-1.7,0.3-2.5,0.8c-0.9,0.5-1.4,1.1-1.7,1.7c-0.5,1-0.7,2.1-0.7,3.2
				C166.2,43.1,166.4,43.8,166.8,44.2 M161.6,44.5c0.3-2.1,0.8-3.7,1.5-4.8c0.4-0.7,0.9-1,1.4-1c0.3,0,0.6,0.1,0.9,0.4l0.2-0.1
				c0-0.8,0.2-1.6,0.4-2.3c-0.1-0.1-0.3-0.1-0.5-0.1c-0.3,0-0.6,0.1-0.8,0.2c-0.3,0.2-0.7,0.6-1.1,1.3c-0.4,0.6-0.9,1.4-1.3,2.4
				h-0.1l0.1-0.4c0.4-1.6,0.6-2.5,0.6-2.8c0-0.2,0-0.3-0.1-0.5c-0.1-0.1-0.2-0.2-0.3-0.2c-0.5,0-1.5,0.6-3.1,1.9l0.2,0.5
				c0.3-0.3,0.6-0.5,0.9-0.6c0.2-0.1,0.3-0.1,0.4-0.1c0.1,0,0.1,0,0.1,0.1c0,0.1,0,0.2,0,0.3c0,0.2,0,0.6-0.1,1.1
				c-0.1,0.7-0.2,1.4-0.4,1.9c-0.3,1.1-0.5,2.1-0.8,3.1l0.2,0.2C160.2,44.7,160.8,44.6,161.6,44.5 M150.1,44.6c0.3,0,1.2,0,2.8,0.1
				l0.1-0.6h-0.5c-0.5,0-0.9-0.1-1.1-0.2c-0.1-0.1-0.2-0.2-0.2-0.4c0-0.3,0.1-1.1,0.3-2.3l0.7-4l0.6-3.4c0.4-0.1,0.8-0.1,1.3-0.1
				c0.7,0,1.3,0.2,1.6,0.6c0.4,0.4,0.6,0.9,0.6,1.7c0,0.6-0.1,1.2-0.4,1.7c-0.2,0.5-0.5,0.9-0.9,1.1c-0.4,0.3-0.7,0.4-1.1,0.4
				c-0.3,0-0.8-0.1-1.3-0.3l0.1,0.6c0.6,0.2,1.2,0.3,1.6,0.3c1.2,0,2.2-0.4,3-1.2c0.8-0.8,1.2-1.7,1.2-2.8c0-0.9-0.3-1.5-0.8-2.1
				c-0.5-0.5-1.4-0.8-2.6-0.8l-3.8,0.1l-2.4-0.1l-0.1,0.6h0.6c0.4,0,0.7,0,0.9,0.1c0.1,0.1,0.2,0.2,0.2,0.5c0,0.3-0.1,1-0.2,1.9
				l-0.7,4.4c-0.3,2-0.6,3.1-0.7,3.3c-0.1,0.2-0.4,0.3-0.9,0.3h-0.6l-0.1,0.6L150.1,44.6z"/>
		</defs>
		<use xlink:href="#XMLID_284_"  style="overflow:visible;fill:#AC182D;"/>
		<clipPath id="XMLID_43_">
			<use xlink:href="#XMLID_284_"  style="overflow:visible;"/>
		</clipPath>
		<rect id="XMLID_208_" x="147.3" y="33" class="st7" width="26.6" height="11.8"/>
	</g>
	<defs>
		<filter id="Adobe_OpacityMaskFilter_2_" filterUnits="userSpaceOnUse" x="50.7" y="32.8" width="92.9" height="13">
			<feColorMatrix  type="matrix" values="1 0 0 0 0  0 1 0 0 0  0 0 1 0 0  0 0 0 1 0"/>
		</filter>
	</defs>
	<mask maskUnits="userSpaceOnUse" x="50.7" y="32.8" width="92.9" height="13" id="XMLID_44_">
		<g id="XMLID_275_" class="st8">
			<g id="XMLID_276_">
				<defs>
					<rect id="XMLID_200_" x="49.5" y="31.6" width="95.8" height="15.9"/>
				</defs>
				<clipPath id="XMLID_45_">
					<use xlink:href="#XMLID_200_"  style="overflow:visible;"/>
				</clipPath>
				<g style="clip-path:url(#XMLID_45_);">
					
						<image style="overflow:visible;" width="302" height="50" id="XMLID_201_" xlink:href="5FB9E0C4.jpg"  transform="matrix(0.3171 0 0 0.3171 49.4737 31.5733)">
					</image>
				</g>
			</g>
		</g>
	</mask>
	<g id="XMLID_279_" class="st9">
		<g id="XMLID_280_">
			<defs>
				<rect id="XMLID_202_" x="50.7" y="32.8" width="92.9" height="13"/>
			</defs>
			<clipPath id="XMLID_46_">
				<use xlink:href="#XMLID_202_"  style="overflow:visible;"/>
			</clipPath>
			<rect id="XMLID_203_" x="50.7" y="32.8" class="st10" width="92.9" height="13"/>
		</g>
	</g>
	<path id="XMLID_264_" class="st3" d="M142,42.4c-0.8,0.5-1.4,0.9-2,1c-0.6,0.2-1.1,0.3-1.7,0.3c-1.1,0-1.9-0.3-2.4-0.9
		c-0.6-0.6-0.9-1.5-0.9-2.7c0-1.3,0.2-2.6,0.7-3.7c0.3-0.9,0.8-1.5,1.4-1.9c0.6-0.4,1.3-0.6,2.3-0.6c0.6,0,1.1,0.1,1.5,0.2
		c0.4,0.1,0.8,0.3,1.2,0.6c0,0.5,0.1,0.8,0.1,1c0,0.2,0,0.4,0,0.6h0.6c0.1-0.8,0.3-1.7,0.6-2.8c-0.4-0.2-0.8-0.4-1.4-0.5
		c-0.6-0.1-1.2-0.2-1.8-0.2c-1.3,0-2.5,0.3-3.7,1c-1.2,0.7-2.1,1.6-2.7,2.6c-0.6,1.1-0.9,2.3-0.9,3.8c0,1.4,0.4,2.6,1.2,3.3
		c0.8,0.8,2,1.2,3.5,1.2c0.5,0,1,0,1.4-0.1c0.5-0.1,0.9-0.2,1.3-0.4s1.1-0.5,2-1.1l0.2-0.7L142,42.4z M127.5,44.6
		c0.6,0,1.6,0,2.9,0.1l0.1-0.6H130c-0.5,0-0.8,0-0.9-0.1c-0.1-0.1-0.2-0.2-0.2-0.4c0-0.3,0.1-1,0.3-2L130,36c0.2-1,0.3-1.6,0.4-1.9
		c0.1-0.2,0.2-0.3,0.3-0.4c0.1-0.1,0.5-0.1,1-0.1h0.2l0.1-0.6l-2.7,0.1c-0.3,0-1.2,0-2.7-0.1l-0.1,0.6h0.4c0.5,0,0.8,0,1,0.1
		c0.1,0.1,0.2,0.2,0.2,0.4c0,0.4-0.2,1.6-0.5,3.5c-0.2,1.4-0.5,2.8-0.7,4.1c-0.2,1-0.3,1.6-0.3,1.8c-0.1,0.2-0.1,0.3-0.2,0.4
		c-0.1,0.1-0.1,0.1-0.3,0.2c-0.1,0-0.3,0.1-0.6,0.1H125l-0.1,0.6C125.9,44.6,126.7,44.6,127.5,44.6 M118.8,44.6c0.8,0,1.7,0,3,0.1
		l0.1-0.6h-0.7c-0.4,0-0.6,0-0.8-0.1c-0.1-0.1-0.2-0.2-0.2-0.4c0-0.3,0.1-0.7,0.2-1.5c0.6-3.8,1.1-6.6,1.4-8.2h1.4
		c0.8,0,1.2,0,1.4,0.1c0.1,0.1,0.2,0.3,0.2,0.6c0,0.3,0,0.8-0.1,1.3h0.6c0.1-0.5,0.2-1.2,0.3-2.1l0.2-0.9l-0.1-0.1
		c-0.8,0-2.1,0.1-4,0.1h-2.3l-3.5-0.1l-0.1,0.1c-0.1,1-0.2,2-0.4,2.9h0.6l0.1-0.7c0.1-0.7,0.3-1.1,0.5-1.2c0.3-0.1,1-0.2,2.1-0.2
		h0.8c-0.5,2.8-0.9,5.3-1.3,7.6c-0.2,1.1-0.3,1.8-0.4,2c-0.1,0.2-0.1,0.3-0.2,0.4c-0.1,0.1-0.3,0.1-0.7,0.1h-0.7l-0.1,0.6
		C117.1,44.6,118,44.6,118.8,44.6 M107.2,44.6c0.5,0.1,1,0.2,1.6,0.2c1.3,0,2.5-0.4,3.4-1.3c0.9-0.9,1.4-1.9,1.4-2.9
		c0-0.7-0.2-1.2-0.5-1.6c-0.3-0.4-1-0.7-2.2-1c-0.6-0.1-1.1-0.3-1.6-0.4c-0.3-0.1-0.5-0.3-0.7-0.6c-0.2-0.3-0.3-0.6-0.3-1
		c0-0.7,0.2-1.2,0.6-1.6c0.4-0.4,1-0.6,1.7-0.6c0.5,0,0.9,0.1,1.3,0.3c0.4,0.2,0.7,0.4,0.9,0.7l0,0.5l0,0.9h0.6
		c0.1-0.7,0.2-1.6,0.4-2.5c-0.4-0.2-0.8-0.4-1.2-0.5c-0.4-0.1-0.9-0.2-1.4-0.2c-1.3,0-2.4,0.4-3.2,1.2c-0.9,0.8-1.3,1.8-1.3,2.9
		c0,0.7,0.2,1.3,0.5,1.8c0.4,0.4,1.2,0.8,2.5,1.1c0.9,0.2,1.4,0.4,1.7,0.6c0.2,0.2,0.4,0.6,0.4,1.1c0,0.7-0.2,1.3-0.6,1.7
		c-0.4,0.4-1,0.6-1.8,0.6c-0.5,0-1-0.1-1.5-0.3c-0.5-0.2-0.8-0.5-1.1-0.8l0-0.5l0-0.9h-0.5c-0.1,0.9-0.3,1.8-0.4,2.6
		C106.2,44.3,106.7,44.5,107.2,44.6 M101.1,44.6c0.6,0,1.6,0,2.9,0.1l0.1-0.6h-0.5c-0.5,0-0.8,0-0.9-0.1c-0.1-0.1-0.2-0.2-0.2-0.4
		c0-0.3,0.1-1,0.3-2l0.9-5.6c0.2-1,0.3-1.6,0.4-1.9c0.1-0.2,0.2-0.3,0.3-0.4c0.1-0.1,0.5-0.1,1-0.1h0.2l0.1-0.6l-2.7,0.1
		c-0.3,0-1.2,0-2.7-0.1l-0.1,0.6h0.4c0.5,0,0.8,0,1,0.1c0.1,0.1,0.2,0.2,0.2,0.4c0,0.4-0.2,1.6-0.5,3.5c-0.2,1.4-0.5,2.8-0.7,4.1
		c-0.2,1-0.3,1.6-0.3,1.8c-0.1,0.2-0.1,0.3-0.2,0.4c-0.1,0.1-0.1,0.1-0.3,0.2c-0.1,0-0.3,0.1-0.6,0.1h-0.5l-0.1,0.6
		C99.5,44.6,100.4,44.6,101.1,44.6 M88.2,44.6c0.4,0,1.1,0,2.3,0.1l0.1-0.6h-0.2c-0.5,0-0.9-0.1-1.1-0.1c-0.1-0.1-0.2-0.2-0.2-0.4
		c0-0.3,0.2-1.4,0.5-3.3l0.2-1.4l0.3,0l2.1,0h2.1l0.4,0l-0.4,2.3c-0.3,1.6-0.5,2.5-0.6,2.7c-0.1,0.2-0.5,0.2-1.1,0.2h-0.3l-0.1,0.6
		c0.8-0.1,1.7-0.1,2.6-0.1c0.9,0,1.9,0,2.8,0.1l0.1-0.6h-0.2c-0.6-0.1-1-0.1-1.1-0.1c-0.1-0.1-0.2-0.2-0.2-0.4
		c0-0.3,0.1-1.2,0.4-2.8l0.7-4c0.2-1.2,0.4-2.1,0.5-2.5c0.1-0.3,0.2-0.5,0.3-0.5c0.1-0.1,0.4-0.1,1-0.1h0.2l0.1-0.6
		c-0.7,0.1-1.4,0.1-2.1,0.1c-0.4,0-1.4,0-3.2-0.1l-0.1,0.6c0.7,0,1.1,0,1.2,0.1c0.2,0.1,0.3,0.2,0.3,0.4c0,0.5-0.1,1.3-0.3,2.4
		l-0.3,1.6l-1.6,0l-2.7,0l-0.6,0l0.3-1.7c0.3-1.5,0.5-2.4,0.6-2.5c0.1-0.2,0.3-0.2,0.7-0.2h0.6l0.1-0.6c-1.1,0-1.8,0.1-2.1,0.1
		l-3.2-0.1l-0.1,0.6h0.8c0.3,0,0.5,0,0.6,0.1c0.1,0.1,0.2,0.2,0.2,0.4c0,0.3-0.1,1.2-0.3,2.5l-0.9,5.3c-0.2,1.2-0.4,1.8-0.5,2
		c-0.1,0.2-0.4,0.2-0.9,0.2h-0.5l-0.1,0.6L88.2,44.6z M76.9,44.6c0.3,0,1.2,0,2.8,0.1l0.1-0.6h-0.5c-0.5,0-0.9-0.1-1.1-0.2
		c-0.1-0.1-0.2-0.2-0.2-0.4c0-0.3,0.1-1.1,0.3-2.3l0.7-4l0.6-3.4c0.4-0.1,0.8-0.1,1.3-0.1c0.7,0,1.3,0.2,1.6,0.6
		c0.4,0.4,0.6,0.9,0.6,1.7c0,0.6-0.1,1.2-0.4,1.7c-0.2,0.5-0.5,0.9-0.9,1.1c-0.4,0.3-0.7,0.4-1.1,0.4c-0.3,0-0.8-0.1-1.3-0.3
		l0.1,0.6c0.6,0.2,1.2,0.3,1.6,0.3c1.2,0,2.2-0.4,3-1.2c0.8-0.8,1.2-1.7,1.2-2.8c0-0.9-0.3-1.5-0.8-2.1C84.1,33.3,83.2,33,82,33
		l-3.8,0.1l-2.4-0.1l-0.1,0.6h0.6c0.4,0,0.7,0,0.9,0.1c0.1,0.1,0.2,0.2,0.2,0.5c0,0.3-0.1,1-0.2,1.9l-0.7,4.4
		c-0.3,2-0.6,3.1-0.7,3.3c-0.1,0.2-0.4,0.3-0.9,0.3h-0.6l-0.1,0.6L76.9,44.6z M64.2,36.7c0.4-1.2,0.9-1.9,1.5-2.4
		c0.6-0.4,1.3-0.7,2.2-0.7c1,0,1.8,0.3,2.3,0.9c0.5,0.6,0.8,1.5,0.8,2.6c0,1.4-0.2,2.7-0.7,3.9c-0.4,1.2-1,2-1.5,2.4
		c-0.6,0.4-1.3,0.7-2.1,0.7c-0.7,0-1.2-0.1-1.7-0.4c-0.5-0.3-0.9-0.6-1.1-1.1c-0.2-0.5-0.4-1.1-0.4-1.9
		C63.6,39.2,63.8,37.8,64.2,36.7 M62.6,43.6c0.9,0.8,2.1,1.2,3.8,1.2c1.4,0,2.5-0.3,3.6-0.9c1-0.6,1.9-1.5,2.5-2.6
		c0.6-1.1,1-2.3,1-3.6c0-1.5-0.5-2.6-1.4-3.5c-0.9-0.9-2.2-1.3-3.9-1.3c-1.4,0-2.6,0.3-3.6,0.9c-1,0.6-1.8,1.4-2.4,2.5
		c-0.6,1.1-0.9,2.4-0.9,3.9C61.2,41.6,61.7,42.7,62.6,43.6 M52.7,44.6c0.5,0.1,1,0.2,1.6,0.2c1.3,0,2.5-0.4,3.4-1.3
		c0.9-0.9,1.4-1.9,1.4-2.9c0-0.7-0.2-1.2-0.5-1.6c-0.3-0.4-1-0.7-2.2-1c-0.6-0.1-1.1-0.3-1.6-0.4c-0.3-0.1-0.5-0.3-0.7-0.6
		c-0.2-0.3-0.3-0.6-0.3-1c0-0.7,0.2-1.2,0.6-1.6c0.4-0.4,1-0.6,1.7-0.6c0.5,0,0.9,0.1,1.3,0.3c0.4,0.2,0.7,0.4,0.9,0.7l0,0.5l0,0.9
		H59c0.1-0.7,0.2-1.6,0.4-2.5c-0.4-0.2-0.8-0.4-1.2-0.5c-0.4-0.1-0.9-0.2-1.4-0.2c-1.3,0-2.4,0.4-3.2,1.2c-0.9,0.8-1.3,1.8-1.3,2.9
		c0,0.7,0.2,1.3,0.5,1.8c0.4,0.4,1.2,0.8,2.5,1.1c0.9,0.2,1.4,0.4,1.7,0.6c0.2,0.2,0.4,0.6,0.4,1.1c0,0.7-0.2,1.3-0.6,1.7
		c-0.4,0.4-1,0.6-1.8,0.6c-0.5,0-1-0.1-1.5-0.3c-0.5-0.2-0.8-0.5-1.1-0.8l0-0.5l0-0.9h-0.5c-0.1,0.9-0.3,1.8-0.4,2.6
		C51.7,44.3,52.2,44.5,52.7,44.6"/>
	<defs>
		<filter id="Adobe_OpacityMaskFilter_3_" filterUnits="userSpaceOnUse" x="269.1" y="30.6" width="7" height="7">
			<feColorMatrix  type="matrix" values="1 0 0 0 0  0 1 0 0 0  0 0 1 0 0  0 0 0 1 0"/>
		</filter>
	</defs>
	<mask maskUnits="userSpaceOnUse" x="269.1" y="30.6" width="7" height="7" id="XMLID_47_">
		<g id="XMLID_256_" class="st11">
			<g id="XMLID_257_">
				<defs>
					<rect id="XMLID_186_" x="267.8" y="29.3" width="9.8" height="9.8"/>
				</defs>
				<clipPath id="XMLID_48_">
					<use xlink:href="#XMLID_186_"  style="overflow:visible;"/>
				</clipPath>
				<g style="clip-path:url(#XMLID_48_);">
					
						<image style="overflow:visible;" width="31" height="31" id="XMLID_187_" xlink:href="5FB9E0C7.jpg"  transform="matrix(0.3171 0 0 0.3171 267.848 29.3273)">
					</image>
				</g>
			</g>
		</g>
	</mask>
	<g id="XMLID_260_" class="st12">
		<g id="XMLID_261_">
			<defs>
				<rect id="XMLID_188_" x="269.1" y="30.6" width="7" height="7"/>
			</defs>
			<clipPath id="XMLID_49_">
				<use xlink:href="#XMLID_188_"  style="overflow:visible;"/>
			</clipPath>
			<rect id="XMLID_189_" x="269.1" y="30.6" class="st13" width="7" height="7"/>
		</g>
	</g>
	<path id="XMLID_251_" class="st3" d="M272.4,32.8c0-0.1,0-0.1,0-0.2c0,0,0.1,0,0.1,0l0.2,0c0.2,0,0.4,0.1,0.5,0.2
		c0.1,0.1,0.2,0.3,0.2,0.5c0,0.2-0.1,0.4-0.2,0.5c-0.1,0.1-0.3,0.2-0.6,0.2c-0.1,0-0.1,0-0.2,0V32.8z M271.8,32.6c0,0,0,0.1,0,0.2
		v2.3c0,0.1,0,0.2,0,0.2c0,0-0.1,0-0.3,0v0.2h1.3v-0.2c-0.1,0-0.2,0-0.3,0c0,0-0.1,0-0.1-0.1c0,0,0-0.1,0-0.2v-0.9h0.2
		c0.1,0,0.2,0,0.3,0.1c0.1,0.1,0.2,0.3,0.3,0.6c0.1,0.2,0.2,0.4,0.2,0.5c0.1,0.1,0.1,0.1,0.2,0.2c0.1,0,0.1,0.1,0.2,0.1h0.5v-0.2
		c-0.1,0-0.2,0-0.2-0.1c-0.1,0-0.2-0.2-0.3-0.5c-0.1-0.3-0.3-0.5-0.4-0.6c-0.1-0.1-0.2-0.2-0.3-0.2c0.3-0.1,0.5-0.1,0.6-0.3
		c0.2-0.2,0.2-0.3,0.2-0.6c0-0.2-0.1-0.4-0.3-0.6c-0.2-0.1-0.5-0.2-0.9-0.2h-1.4v0.2C271.6,32.5,271.7,32.6,271.8,32.6 M274,31.8
		c0.4,0.2,0.7,0.5,0.9,0.9c0.2,0.4,0.3,0.8,0.3,1.3c0,0.5-0.1,0.9-0.3,1.3c-0.2,0.4-0.5,0.7-0.9,0.9c-0.4,0.2-0.8,0.3-1.2,0.3
		c-0.4,0-0.9-0.1-1.2-0.3c-0.4-0.2-0.7-0.5-0.9-0.9c-0.2-0.4-0.3-0.8-0.3-1.3c0-0.4,0.1-0.9,0.3-1.3c0.2-0.4,0.5-0.7,0.9-0.9
		c0.4-0.2,0.8-0.3,1.2-0.3C273.2,31.5,273.7,31.6,274,31.8 M271.3,31.5c-0.5,0.3-0.8,0.6-1.1,1.1c-0.3,0.5-0.4,0.9-0.4,1.5
		c0,0.5,0.1,1,0.4,1.5c0.3,0.5,0.6,0.8,1.1,1.1c0.5,0.3,1,0.4,1.5,0.4c0.5,0,1-0.1,1.5-0.4c0.5-0.3,0.8-0.6,1.1-1.1
		c0.3-0.5,0.4-0.9,0.4-1.5c0-0.5-0.1-1-0.4-1.5c-0.3-0.5-0.6-0.8-1.1-1.1c-0.5-0.3-1-0.4-1.5-0.4C272.3,31.1,271.8,31.2,271.3,31.5"
		/>
	<g id="XMLID_246_">
		<defs>
			<path id="XMLID_247_" d="M30.2,25c2.7-0.6,6-1.3,8.8-1.9l-8.6,1.1c2.2-8.3,6.2-19.5,15.7-22.6c-36.4-0.2-19.3,57-46,62.8
				C25.4,64.4,27.1,40.3,30.2,25 M57.2,2.6c-2.5-0.8-6.1-1.6-11.1-1C58,1.9,57.6,11.7,50,18.1c-2.5,2.1-7.3,3.8-11,5
				c4.5-0.7,13.6-2.4,17.6-4.6C66.8,12.9,63.3,4.5,57.2,2.6"/>
		</defs>
		<use xlink:href="#XMLID_247_"  style="overflow:visible;fill:#AC182D;"/>
		<clipPath id="XMLID_50_">
			<use xlink:href="#XMLID_247_"  style="overflow:visible;"/>
		</clipPath>
		<rect id="XMLID_25_" x="0.1" y="1" class="st14" width="66.7" height="63.4"/>
	</g>
	<g id="XMLID_234_">
		<defs>
			<path id="XMLID_235_" d="M36.1,26.7c-0.6,3.4-1.1,7.1-2.5,10.6c-1.2,3.1-3.5,6.1-6.9,7.7c5.1-0.5,8.9-2.7,11.3-7.1
				c1.1-2.3,1.5-4.7,2-7.1c0.4-1.7,0.6-3.4,0.9-5.3c0.2-1,0.3-2.1,0.5-3.2c0,0,0.1-0.4,0.1-0.4c0.4-2.3,0.9-4.8,1.9-7
				c1.2-3.1,3.5-6.1,6.9-7.7c-5.1,0.5-8.9,2.7-11.3,7.1c-1.1,2.3-1.5,4.7-2,7.1c0,0-0.3,1.6-0.3,1.6C36.4,24.1,36.2,25.5,36.1,26.7
				c-0.6,3.4-1.1,7.1-2.5,10.6c-1.2,3.1-3.5,6.1-6.9,7.7c5.1-0.5,8.9-2.7,11.3-7.1c1.1-2.3,1.5-4.7,2-7.1c0.4-1.7,0.6-3.4,0.9-5.3
				c0.2-1,0.3-2.1,0.5-3.2 M5.7,30.2c-3.7,5.2,2.5,11,1.6,16.2c-0.6,3.6-4.1,4.5-7.2,5.4C2.6,51.7,5,51.6,7.3,51
				c3.1-0.8,5.8-2.3,7.2-5.2c1.6-3.5,0.6-6.8-1.4-10.4c-2.6-6.6,2.5-7.1,7.3-8.5l0.5-1.7C16,25.8,8.8,25.9,5.7,30.2 M41.4,22
				c0.4-2.3,0.9-4.8,1.9-7c1.2-3.1,3.5-6.1,6.9-7.7c-5.1,0.5-8.9,2.7-11.3,7.1c-1.1,2.3-1.5,4.7-2,7.1 M5.7,30.2
				c-3.7,5.2,2.5,11,1.6,16.2c-0.6,3.6-4.1,4.5-7.2,5.4C2.6,51.7,5,51.6,7.3,51c3.1-0.8,5.8-2.3,7.2-5.2c1.6-3.5,0.6-6.8-1.4-10.4
				c-2.6-6.6,2.5-7.1,7.3-8.5l0.5-1.7C16,25.8,8.8,25.9,5.7,30.2 M36.1,26.7c-0.6,3.4-1.1,7.1-2.5,10.6c-1.2,3.1-3.5,6.1-6.9,7.7
				c5.1-0.5,8.9-2.7,11.3-7.1c1.1-2.3,1.5-4.7,2-7.1c0.4-1.7,0.6-3.4,0.9-5.3c0.2-1,0.3-2.1,0.5-3.2 M41.4,22c0.4-2.3,0.9-4.8,1.9-7
				c1.2-3.1,3.5-6.1,6.9-7.7c-5.1,0.5-8.9,2.7-11.3,7.1c-1.1,2.3-1.5,4.7-2,7.1 M5.7,30.2c-3.7,5.2,2.5,11,1.6,16.2
				c-0.6,3.6-4.1,4.5-7.2,5.4C2.6,51.7,5,51.6,7.3,51c3.1-0.8,5.8-2.3,7.2-5.2c1.6-3.5,0.6-6.8-1.4-10.4c-2.6-6.6,2.5-7.1,7.3-8.5
				l0.5-1.7C16,25.8,8.8,25.9,5.7,30.2 M5.7,30.2c-3.7,5.2,2.5,11,1.6,16.2c-0.6,3.6-4.1,4.5-7.2,5.4C2.6,51.7,5,51.6,7.3,51
				c3.1-0.8,5.8-2.3,7.2-5.2c1.6-3.5,0.6-6.8-1.4-10.4c-2.6-6.6,2.5-7.1,7.3-8.5l0.5-1.7C16,25.8,8.8,25.9,5.7,30.2 M36.6,23
				c-0.2,1.1-0.4,2.5-0.6,3.6c-0.6,3.4-1.1,7.1-2.5,10.6c-1.2,3.1-3.5,6.1-6.9,7.7c5.1-0.5,8.9-2.7,11.3-7.1c1.1-2.3,1.5-4.7,2-7.1
				c0.4-1.7,0.6-3.4,0.9-5.3c0.2-1,0.3-2.1,0.5-3.2"/>
		</defs>
		<use xlink:href="#XMLID_235_"  style="overflow:visible;fill:#104285;"/>
		<clipPath id="XMLID_69_">
			<use xlink:href="#XMLID_235_"  style="overflow:visible;"/>
		</clipPath>
		<rect id="XMLID_22_" x="0.2" y="7.2" class="st15" width="50.1" height="44.6"/>
	</g>
</g>
<path id="XMLID_75_" class="st3" d="M211.4,57.9c0.1-0.4,0.2-0.8,0.3-1.1c0.1-0.3,0.3-0.7,0.6-1l-0.1-0.1l-0.3,0.1
	c-0.6,0.7-1.1,1.5-1.5,2.3l0.1,0.1C210.8,58,211.1,57.9,211.4,57.9 M209.4,57.9c0.1-0.4,0.2-0.8,0.3-1.1c0.1-0.3,0.3-0.7,0.6-1
	l-0.1-0.1l-0.4,0.1c-0.6,0.7-1.1,1.5-1.5,2.3l0.1,0.1C208.8,58,209.1,57.9,209.4,57.9 M202.6,58.9c0.1,0,0.1,0,0.1,0.1
	c0,0,0,0.1,0,0.2c0,0.2-0.1,0.7-0.2,1.4c-0.2,0.9-0.4,1.8-0.6,2.7l0.1,0.1c0.3-0.1,0.5-0.1,0.7-0.2c0.2-1,0.4-1.8,0.7-2.4
	c0.3-0.6,0.7-1,1.2-1.4c0.4-0.3,0.6-0.4,0.8-0.4c0.1,0,0.1,0,0.1,0.1c0,0,0.1,0.1,0.1,0.2c0,0.3-0.2,1-0.5,2.2
	c-0.2,0.9-0.3,1.4-0.3,1.6c0,0.1,0,0.2,0.1,0.3c0.1,0.1,0.1,0.1,0.2,0.1c0.3,0,0.8-0.3,1.7-1l-0.1-0.2l-0.3,0.2
	c-0.3,0.2-0.5,0.3-0.6,0.3c-0.1,0-0.2-0.1-0.2-0.2c0-0.1,0.1-0.7,0.3-1.5c0.3-1.2,0.4-1.9,0.5-2.1c0-0.1,0-0.2,0-0.3
	c0-0.1,0-0.2-0.1-0.2c-0.1-0.1-0.1-0.1-0.2-0.1c-0.2,0-0.5,0.1-0.8,0.3c-0.4,0.2-0.7,0.4-1.1,0.8c-0.4,0.4-0.7,0.8-1,1.3l0.4-1.7
	c0-0.1,0-0.2,0-0.3c0-0.1,0-0.2-0.1-0.2c0,0-0.1-0.1-0.2-0.1c-0.1,0-0.2,0-0.4,0.1c-0.3,0.2-0.7,0.4-1.3,0.8l0.1,0.2
	C202.2,59.1,202.5,58.9,202.6,58.9 M198,59.9c0.2-0.5,0.4-0.9,0.5-1c0.2-0.2,0.4-0.3,0.7-0.3c0.3,0,0.6,0.1,0.7,0.3
	c0.2,0.2,0.3,0.6,0.3,1c0,0.8-0.2,1.6-0.5,2.2c-0.2,0.5-0.6,0.8-1,0.8c-0.3,0-0.5-0.1-0.7-0.3c-0.2-0.2-0.3-0.5-0.3-1
	C197.8,60.9,197.8,60.4,198,59.9 M197.3,62.8c0.2,0.3,0.6,0.4,1,0.4c0.4,0,0.8-0.1,1.3-0.4c0.4-0.3,0.8-0.7,1-1.3
	c0.3-0.6,0.4-1.2,0.4-1.8c0-0.5-0.1-0.9-0.4-1.1c-0.2-0.3-0.6-0.4-1-0.4c-0.7,0-1.3,0.3-1.8,0.9c-0.6,0.6-0.8,1.4-0.8,2.5
	C197,62.2,197.1,62.6,197.3,62.8 M194.9,58.9c0.1,0,0.1,0.1,0.1,0.2c0,0.3-0.2,1-0.5,2.4c-0.2,0.7-0.3,1.1-0.3,1.3
	c0,0.2,0,0.3,0.1,0.3c0.1,0.1,0.1,0.1,0.2,0.1c0.1,0,0.2,0,0.4-0.1c0.3-0.2,0.7-0.5,1.2-0.8l-0.1-0.2c-0.4,0.3-0.7,0.5-0.8,0.5
	c-0.1,0-0.2-0.1-0.2-0.2c0-0.3,0.2-1.2,0.6-2.7c0.2-0.6,0.2-1,0.2-1.2c0-0.1,0-0.2-0.1-0.2c0,0-0.1-0.1-0.2-0.1
	c-0.3,0-0.8,0.3-1.6,0.9l0.1,0.2C194.5,59,194.8,58.9,194.9,58.9 M195.5,56.8c0.1,0.1,0.2,0.1,0.3,0.1c0.1,0,0.3-0.1,0.4-0.2
	c0.1-0.1,0.2-0.3,0.2-0.5c0-0.1,0-0.2-0.1-0.3c-0.1-0.1-0.2-0.1-0.3-0.1c-0.1,0-0.3,0.1-0.4,0.2c-0.1,0.1-0.2,0.3-0.2,0.5
	C195.4,56.6,195.4,56.7,195.5,56.8 M191.9,62.5c-0.1,0-0.1,0-0.1-0.1c0,0,0-0.1,0-0.2c0-0.3,0.2-1.3,0.6-3.2c0.4,0,0.8,0,1.1,0
	c0-0.2,0.1-0.3,0.1-0.5l0-0.1c-0.2,0-0.4,0.1-0.6,0.1l-0.5,0c0.2-1.1,0.4-1.8,0.5-2.1l-0.1-0.1c-0.3,0.1-0.5,0.3-0.8,0.3
	c-0.1,0.8-0.2,1.4-0.3,1.8c-0.3,0.1-0.6,0.3-0.9,0.4l0,0.2l0.5,0l0.4,0c-0.1,0.7-0.3,1.5-0.5,2.4c-0.1,0.7-0.2,1.1-0.2,1.3
	c0,0.1,0,0.2,0.1,0.3c0.1,0.1,0.2,0.1,0.3,0.1c0.3,0,0.9-0.4,1.8-1.1l-0.1-0.2C192.4,62.3,192.1,62.5,191.9,62.5 M188.1,60.9
	c-0.2,0.4-0.5,0.7-0.9,1.1c-0.4,0.4-0.6,0.5-0.8,0.5c-0.1,0-0.1,0-0.1-0.1c0,0-0.1-0.1-0.1-0.3c0-0.5,0.1-1,0.2-1.6
	c0.2-0.6,0.3-1.1,0.5-1.5c0.1-0.2,0.2-0.3,0.2-0.3c0.2-0.1,0.4-0.1,0.7-0.1c0.1,0,0.2,0,0.4,0c0.1,0,0.3,0.1,0.4,0.1
	C188.6,59.7,188.4,60.4,188.1,60.9 M189.2,58.4c-0.2-0.1-0.3-0.1-0.5-0.1c-0.2,0-0.3,0-0.4,0c-0.3,0-0.6,0.1-0.9,0.2
	c-0.5,0.3-0.8,0.5-0.9,0.7c-0.2,0.3-0.4,0.8-0.6,1.5c-0.2,0.7-0.3,1.3-0.3,1.8c0,0.3,0,0.5,0.1,0.7c0.1,0.1,0.1,0.2,0.2,0.2
	c0.2,0,0.4-0.1,0.8-0.4c0.5-0.4,1-1,1.5-1.7l0,0c-0.2,0.9-0.3,1.4-0.3,1.7c0,0.1,0,0.2,0.1,0.3c0,0.1,0.1,0.1,0.2,0.1
	c0.1,0,0.3,0,0.4-0.1c0.3-0.2,0.7-0.4,1.1-0.8l-0.1-0.2c-0.4,0.3-0.6,0.5-0.8,0.5c0,0-0.1,0-0.1,0c0,0,0-0.1,0-0.1
	c0-0.2,0.1-0.5,0.2-1c0.2-0.9,0.4-1.9,0.8-3.1l-0.1-0.1L189.2,58.4z M185.1,58.5c-0.2-0.1-0.3-0.2-0.4-0.2c-0.1,0-0.3-0.1-0.4-0.1
	c-0.3,0-0.5,0.1-0.8,0.2c-0.5,0.2-0.9,0.5-1.2,0.7c-0.3,0.3-0.5,0.6-0.7,1.1c-0.2,0.5-0.2,1-0.2,1.5c0,0.5,0.1,0.9,0.3,1.1
	c0.2,0.3,0.5,0.4,0.9,0.4c0.3,0,0.6-0.1,0.9-0.2c0.3-0.1,0.7-0.4,1.2-0.9l-0.1-0.2c-0.4,0.3-0.7,0.5-1,0.6c-0.3,0.1-0.5,0.2-0.7,0.2
	c-0.3,0-0.5-0.1-0.6-0.3c-0.2-0.2-0.2-0.5-0.2-0.8c0-0.6,0.1-1.1,0.3-1.6c0.2-0.5,0.4-0.9,0.6-1c0.2-0.2,0.5-0.2,0.8-0.2
	c0.3,0,0.5,0.1,0.7,0.2c0.1,0.1,0.2,0.2,0.2,0.3c0,0.1,0,0.3,0,0.6h0.2C184.9,59.3,185,58.9,185.1,58.5 M179.1,58.9
	c0.1,0,0.1,0.1,0.1,0.2c0,0.3-0.2,1-0.5,2.4c-0.2,0.7-0.3,1.1-0.3,1.3c0,0.2,0,0.3,0.1,0.3c0.1,0.1,0.1,0.1,0.2,0.1
	c0.1,0,0.2,0,0.4-0.1c0.3-0.2,0.7-0.5,1.2-0.8l-0.1-0.2c-0.4,0.3-0.7,0.5-0.8,0.5c-0.1,0-0.2-0.1-0.2-0.2c0-0.3,0.2-1.2,0.6-2.7
	c0.2-0.6,0.2-1,0.2-1.2c0-0.1,0-0.2-0.1-0.2c0,0-0.1-0.1-0.2-0.1c-0.3,0-0.8,0.3-1.6,0.9l0.1,0.2C178.8,59,179,58.9,179.1,58.9
	 M179.7,56.8c0.1,0.1,0.2,0.1,0.3,0.1c0.1,0,0.3-0.1,0.4-0.2c0.1-0.1,0.2-0.3,0.2-0.5c0-0.1,0-0.2-0.1-0.3c-0.1-0.1-0.2-0.1-0.3-0.1
	c-0.1,0-0.3,0.1-0.4,0.2c-0.1,0.1-0.2,0.3-0.2,0.5C179.6,56.6,179.6,56.7,179.7,56.8 M176.2,62.5c-0.1,0-0.1,0-0.1-0.1
	c0,0,0-0.1,0-0.2c0-0.3,0.2-1.3,0.6-3.2c0.4,0,0.8,0,1.1,0c0-0.2,0.1-0.3,0.1-0.5l0-0.1c-0.2,0-0.4,0.1-0.6,0.1l-0.5,0
	c0.2-1.1,0.4-1.8,0.5-2.1l-0.1-0.1c-0.3,0.1-0.5,0.3-0.8,0.3c-0.1,0.8-0.2,1.4-0.3,1.8c-0.3,0.1-0.6,0.3-0.9,0.4l0,0.2l0.5,0l0.4,0
	c-0.1,0.7-0.3,1.5-0.5,2.4c-0.1,0.7-0.2,1.1-0.2,1.3c0,0.1,0,0.2,0.1,0.3c0.1,0.1,0.2,0.1,0.3,0.1c0.3,0,0.9-0.4,1.8-1.1l-0.1-0.2
	C176.6,62.3,176.3,62.5,176.2,62.5 M170.4,63c0.2,0.1,0.4,0.2,0.5,0.2c0.2,0,0.4,0.1,0.5,0.1c0.6,0,1.1-0.2,1.5-0.6
	c0.5-0.4,0.7-0.8,0.7-1.3c0-0.3-0.1-0.6-0.3-0.7c-0.1-0.1-0.5-0.2-1-0.3c-0.4-0.1-0.7-0.2-0.8-0.2c-0.2-0.1-0.2-0.3-0.2-0.5
	c0-0.3,0.1-0.5,0.3-0.7c0.2-0.2,0.5-0.3,0.8-0.3c0.3,0,0.6,0.1,0.8,0.3c0.1,0.1,0.1,0.2,0.1,0.3c0,0.1,0,0.2,0,0.4h0.2
	c0-0.5,0.1-0.9,0.2-1.2c-0.2-0.1-0.3-0.2-0.5-0.2c-0.2,0-0.3-0.1-0.5-0.1c-0.3,0-0.6,0.1-0.9,0.3c-0.4,0.2-0.7,0.5-0.9,0.7
	c-0.2,0.2-0.2,0.5-0.2,0.7c0,0.3,0.1,0.6,0.3,0.8c0.2,0.1,0.6,0.2,1.2,0.3c0.3,0.1,0.6,0.1,0.7,0.2c0.1,0.1,0.2,0.3,0.2,0.5
	c0,0.3-0.1,0.6-0.3,0.8c-0.2,0.2-0.5,0.3-0.8,0.3c-0.2,0-0.4,0-0.6-0.1c-0.2-0.1-0.4-0.2-0.5-0.3l0-0.4l0-0.5h-0.3
	C170.5,62.1,170.5,62.6,170.4,63 M168.3,58.9c0.1,0,0.1,0.1,0.1,0.2c0,0.3-0.2,1-0.5,2.4c-0.2,0.7-0.3,1.1-0.3,1.3
	c0,0.2,0,0.3,0.1,0.3c0.1,0.1,0.1,0.1,0.2,0.1c0.1,0,0.2,0,0.4-0.1c0.3-0.2,0.7-0.5,1.2-0.8l-0.1-0.2c-0.4,0.3-0.7,0.5-0.8,0.5
	c-0.1,0-0.2-0.1-0.2-0.2c0-0.3,0.2-1.2,0.6-2.7c0.2-0.6,0.2-1,0.2-1.2c0-0.1,0-0.2-0.1-0.2c0,0-0.1-0.1-0.2-0.1
	c-0.3,0-0.8,0.3-1.6,0.9l0.1,0.2C167.9,59,168.2,58.9,168.3,58.9 M168.9,56.8c0.1,0.1,0.2,0.1,0.3,0.1c0.1,0,0.3-0.1,0.4-0.2
	c0.1-0.1,0.2-0.3,0.2-0.5c0-0.1,0-0.2-0.1-0.3c-0.1-0.1-0.2-0.1-0.3-0.1c-0.1,0-0.3,0.1-0.4,0.2c-0.1,0.1-0.2,0.3-0.2,0.5
	C168.8,56.6,168.8,56.7,168.9,56.8 M162.6,63.1c0.2-1,0.4-1.8,0.6-2.3c0.3-0.5,0.7-1,1.2-1.4c0.4-0.3,0.7-0.5,0.9-0.5
	c0.1,0,0.1,0,0.2,0.1c0,0,0.1,0.1,0.1,0.2c0,0.2-0.2,1.1-0.6,2.6c-0.2,0.6-0.2,1-0.2,1.1c0,0.1,0,0.2,0.1,0.3
	c0.1,0.1,0.1,0.1,0.2,0.1c0.1,0,0.2,0,0.4-0.1c0.2-0.1,0.6-0.4,1.3-0.8l-0.1-0.2l-0.3,0.2c-0.2,0.1-0.3,0.2-0.4,0.3
	c-0.1,0-0.1,0-0.2,0c-0.1,0-0.2-0.1-0.2-0.2c0-0.2,0.1-0.7,0.3-1.5c0.2-1,0.4-1.6,0.5-2c0-0.1,0-0.3,0-0.4c0-0.1,0-0.2-0.1-0.3
	c-0.1-0.1-0.1-0.1-0.2-0.1c-0.3,0-0.7,0.2-1.2,0.5c-0.5,0.3-1.1,0.9-1.7,1.7c0.1-0.6,0.4-2.2,1-4.7l-0.1-0.1
	c-0.6,0.2-1.1,0.3-1.7,0.4l0,0.2c0.4,0,0.7,0,0.7,0c0.1,0,0.1,0.1,0.1,0.3c0,0.1-0.1,0.8-0.3,2c-0.4,2.2-0.8,3.8-1,4.7l0.1,0.1
	C162.1,63.2,162.3,63.1,162.6,63.1 M157.8,62.2c0.1-0.8,0.3-1.3,0.4-1.6c0.2-0.6,0.5-1,0.9-1.3c0.4-0.3,0.7-0.5,1-0.5
	c0.1,0,0.2,0,0.3,0.1c0.1,0.1,0.1,0.2,0.1,0.4c0,0.6-0.1,1.2-0.4,1.8c-0.2,0.7-0.5,1.1-0.7,1.3c-0.2,0.2-0.5,0.3-0.8,0.3
	c-0.3,0-0.6-0.1-0.9-0.3L157.8,62.2z M157.4,58.9c0.1,0,0.1,0,0.1,0.1c0,0,0,0.1,0,0.2c0,0.2-0.1,0.7-0.2,1.5
	c-0.4,2.2-0.7,3.9-1.1,5.4l0.1,0.1c0.2-0.1,0.5-0.1,0.8-0.1c0.1-0.7,0.2-1.6,0.5-2.7c0.3,0.1,0.5,0.1,0.6,0.1c0.3,0,0.6-0.1,1-0.3
	c0.4-0.2,0.7-0.5,0.9-0.7c0.3-0.2,0.5-0.6,0.7-1.2c0.2-0.6,0.3-1.1,0.3-1.7c0-0.3-0.1-0.6-0.2-0.9c-0.1-0.1-0.2-0.2-0.4-0.2
	c-0.2,0-0.5,0.1-0.8,0.2c-0.3,0.1-0.6,0.4-0.9,0.6c-0.3,0.3-0.6,0.6-0.8,1.1c0.2-0.9,0.3-1.5,0.3-1.6c0-0.1,0-0.2-0.1-0.2
	c0-0.1-0.1-0.1-0.2-0.1c-0.1,0-0.2,0-0.4,0.1c-0.2,0.1-0.7,0.4-1.3,0.8l0.1,0.2C157,59,157.3,58.9,157.4,58.9 M153,59.9
	c0.2-0.5,0.4-0.9,0.5-1c0.2-0.2,0.4-0.3,0.7-0.3c0.3,0,0.6,0.1,0.7,0.3c0.2,0.2,0.3,0.6,0.3,1c0,0.8-0.2,1.6-0.5,2.2
	c-0.2,0.5-0.6,0.8-1,0.8c-0.3,0-0.5-0.1-0.7-0.3c-0.2-0.2-0.3-0.5-0.3-1C152.7,60.9,152.8,60.4,153,59.9 M152.3,62.8
	c0.2,0.3,0.6,0.4,1,0.4c0.4,0,0.8-0.1,1.3-0.4c0.4-0.3,0.8-0.7,1-1.3c0.3-0.6,0.4-1.2,0.4-1.8c0-0.5-0.1-0.9-0.4-1.1
	c-0.2-0.3-0.6-0.4-1-0.4c-0.7,0-1.3,0.3-1.8,0.9c-0.6,0.6-0.8,1.4-0.8,2.5C151.9,62.2,152.1,62.6,152.3,62.8 M147.7,63
	c0.2,0.1,0.4,0.2,0.5,0.2c0.2,0,0.4,0.1,0.5,0.1c0.6,0,1.1-0.2,1.5-0.6c0.5-0.4,0.7-0.8,0.7-1.3c0-0.3-0.1-0.6-0.3-0.7
	c-0.1-0.1-0.5-0.2-1-0.3c-0.4-0.1-0.7-0.2-0.8-0.2c-0.2-0.1-0.2-0.3-0.2-0.5c0-0.3,0.1-0.5,0.3-0.7s0.5-0.3,0.8-0.3
	c0.3,0,0.6,0.1,0.8,0.3c0.1,0.1,0.1,0.2,0.1,0.3c0,0.1,0,0.2,0,0.4h0.2c0-0.5,0.1-0.9,0.2-1.2c-0.2-0.1-0.3-0.2-0.5-0.2
	c-0.2,0-0.3-0.1-0.5-0.1c-0.3,0-0.6,0.1-0.9,0.3c-0.4,0.2-0.7,0.5-0.9,0.7c-0.2,0.2-0.2,0.5-0.2,0.7c0,0.3,0.1,0.6,0.3,0.8
	c0.2,0.1,0.6,0.2,1.2,0.3c0.3,0.1,0.6,0.1,0.7,0.2c0.1,0.1,0.2,0.3,0.2,0.5c0,0.3-0.1,0.6-0.3,0.8c-0.2,0.2-0.5,0.3-0.8,0.3
	c-0.2,0-0.4,0-0.6-0.1c-0.2-0.1-0.4-0.2-0.5-0.3l0-0.4l0-0.5H148C147.9,62.1,147.8,62.6,147.7,63 M142.1,59.4
	c0.1-0.2,0.3-0.4,0.5-0.6c0.2-0.1,0.4-0.2,0.6-0.2c0.2,0,0.3,0,0.4,0.1s0.1,0.2,0.1,0.4c0,0.3-0.2,0.6-0.5,0.9
	c-0.3,0.3-0.8,0.5-1.5,0.6C141.8,60.2,141.9,59.7,142.1,59.4 M143,62.6c-0.2,0.1-0.5,0.1-0.6,0.1c-0.2,0-0.4-0.1-0.6-0.2
	c-0.2-0.2-0.2-0.4-0.2-0.7c0-0.2,0-0.5,0.1-0.9c1.9-0.4,2.8-1,2.8-1.9c0-0.2-0.1-0.4-0.2-0.6c-0.2-0.2-0.4-0.2-0.7-0.2
	c-0.2,0-0.5,0.1-0.8,0.2c-0.5,0.2-0.9,0.5-1.1,0.7c-0.2,0.2-0.4,0.6-0.6,1.2c-0.2,0.6-0.3,1.1-0.3,1.5c0,0.4,0.1,0.8,0.3,1
	c0.2,0.2,0.5,0.3,0.9,0.3c0.3,0,0.6-0.1,0.9-0.2c0.3-0.1,0.7-0.4,1.2-0.8L144,62C143.6,62.3,143.2,62.5,143,62.6 M138.8,62.5
	c-0.1,0-0.1,0-0.1-0.1c0,0-0.1-0.1-0.1-0.2c0-0.3,0.2-1.3,0.6-3.2c0.4,0,0.8,0,1.1,0c0-0.2,0.1-0.3,0.1-0.5l0-0.1
	c-0.2,0-0.4,0.1-0.6,0.1l-0.5,0c0.2-1.1,0.4-1.8,0.5-2.1l-0.1-0.1c-0.3,0.1-0.5,0.3-0.8,0.3c-0.1,0.8-0.2,1.4-0.3,1.8
	c-0.3,0.1-0.6,0.3-0.9,0.4l0,0.2l0.5,0l0.4,0c-0.1,0.7-0.3,1.5-0.5,2.4c-0.1,0.7-0.2,1.1-0.2,1.3c0,0.1,0,0.2,0.1,0.3
	c0.1,0.1,0.2,0.1,0.3,0.1c0.3,0,0.9-0.4,1.8-1.1l-0.1-0.2C139.3,62.3,139,62.5,138.8,62.5 M135,60.9c-0.2,0.4-0.5,0.7-0.9,1.1
	c-0.4,0.4-0.6,0.5-0.8,0.5c-0.1,0-0.1,0-0.1-0.1c0,0-0.1-0.1-0.1-0.3c0-0.5,0.1-1,0.2-1.6c0.1-0.6,0.3-1.1,0.5-1.5
	c0.1-0.2,0.2-0.3,0.2-0.3c0.2-0.1,0.4-0.1,0.7-0.1c0.1,0,0.2,0,0.4,0c0.1,0,0.3,0.1,0.4,0.1C135.5,59.7,135.3,60.4,135,60.9
	 M136.1,58.4c-0.2-0.1-0.3-0.1-0.5-0.1c-0.2,0-0.3,0-0.4,0c-0.3,0-0.6,0.1-0.9,0.2c-0.5,0.3-0.8,0.5-0.9,0.7
	c-0.2,0.3-0.4,0.8-0.6,1.5c-0.2,0.7-0.3,1.3-0.3,1.8c0,0.3,0,0.5,0.1,0.7c0.1,0.1,0.1,0.2,0.2,0.2c0.2,0,0.4-0.1,0.8-0.4
	c0.5-0.4,1-1,1.5-1.7l0,0c-0.2,0.9-0.3,1.4-0.3,1.7c0,0.1,0,0.2,0.1,0.3c0,0.1,0.1,0.1,0.2,0.1c0.1,0,0.3,0,0.4-0.1
	c0.3-0.2,0.7-0.4,1.1-0.8l-0.1-0.2c-0.4,0.3-0.6,0.5-0.8,0.5c0,0-0.1,0-0.1,0c0,0,0-0.1,0-0.1c0-0.2,0.1-0.5,0.2-1
	c0.2-0.9,0.4-1.9,0.8-3.1l-0.1-0.1L136.1,58.4z M125.2,58.9c0,0,0.1,0,0.1,0.1c0,0,0,0.1,0,0.2c0,0.2-0.1,0.7-0.2,1.3
	c-0.1,0.8-0.4,1.7-0.7,2.7l0.1,0.1c0.2-0.1,0.5-0.1,0.7-0.1c0.2-1.1,0.4-2,0.7-2.5c0.2-0.5,0.6-1,1.1-1.4c0.3-0.2,0.5-0.4,0.7-0.4
	c0.1,0,0.1,0,0.1,0.1c0,0,0,0.1,0,0.2c0,0.3,0,0.7-0.1,1.2c-0.1,0.6-0.3,1.5-0.7,2.8l0.1,0.1c0.3-0.1,0.5-0.1,0.7-0.1
	c0.2-1.1,0.4-1.9,0.6-2.4c0.3-0.5,0.6-1,1.1-1.4c0.4-0.3,0.7-0.4,0.9-0.4c0.1,0,0.1,0,0.1,0c0,0,0,0.1,0,0.1c0,0.4-0.2,1.2-0.5,2.4
	c-0.2,0.8-0.3,1.3-0.3,1.4c0,0.1,0,0.2,0.1,0.3c0.1,0.1,0.1,0.1,0.2,0.1c0.1,0,0.2,0,0.4-0.1c0.2-0.1,0.6-0.4,1.2-0.8l-0.1-0.2
	c-0.3,0.2-0.5,0.3-0.7,0.4c-0.1,0-0.1,0.1-0.2,0.1c0,0-0.1,0-0.1-0.1c0,0,0-0.1,0-0.1c0-0.1,0.1-0.6,0.3-1.4
	c0.4-1.5,0.6-2.3,0.6-2.5c0-0.1,0-0.2-0.1-0.2c0,0-0.1-0.1-0.2-0.1c-0.2,0-0.4,0.1-0.7,0.2c-0.4,0.2-0.8,0.4-1.1,0.7
	c-0.3,0.3-0.7,0.7-1,1.2c0.2-1.1,0.4-1.7,0.4-1.9c0-0.1,0-0.2-0.1-0.2c-0.1-0.1-0.1-0.1-0.2-0.1c-0.3,0-0.7,0.2-1.2,0.5
	c-0.5,0.4-1,0.9-1.5,1.6c0.1-0.5,0.2-1,0.3-1.3c0.1-0.3,0.1-0.5,0.1-0.6c0-0.1,0-0.2-0.1-0.2c0,0-0.1-0.1-0.2-0.1
	c-0.1,0-0.3,0-0.4,0.1c-0.3,0.1-0.7,0.4-1.2,0.8l0.1,0.2C124.8,59,125,58.9,125.2,58.9 M122.2,58.9c0.1,0,0.1,0.1,0.1,0.2
	c0,0.3-0.2,1-0.5,2.4c-0.2,0.7-0.3,1.1-0.3,1.3c0,0.2,0,0.3,0.1,0.3c0.1,0.1,0.1,0.1,0.2,0.1c0.1,0,0.2,0,0.4-0.1
	c0.3-0.2,0.7-0.5,1.2-0.8l-0.1-0.2c-0.4,0.3-0.7,0.5-0.8,0.5c-0.1,0-0.2-0.1-0.2-0.2c0-0.3,0.2-1.2,0.6-2.7c0.2-0.6,0.2-1,0.2-1.2
	c0-0.1,0-0.2-0.1-0.2c0,0-0.1-0.1-0.2-0.1c-0.3,0-0.8,0.3-1.6,0.9l0.1,0.2C121.8,59,122.1,58.9,122.2,58.9 M122.8,56.8
	c0.1,0.1,0.2,0.1,0.3,0.1c0.1,0,0.3-0.1,0.4-0.2c0.1-0.1,0.2-0.3,0.2-0.5c0-0.1,0-0.2-0.1-0.3c-0.1-0.1-0.2-0.1-0.3-0.1
	c-0.1,0-0.3,0.1-0.4,0.2c-0.1,0.1-0.2,0.3-0.2,0.5C122.7,56.6,122.7,56.7,122.8,56.8 M119.2,62.5c-0.1,0-0.1,0-0.1-0.1
	c0,0-0.1-0.1-0.1-0.2c0-0.3,0.2-1.3,0.6-3.2c0.4,0,0.8,0,1.1,0c0-0.2,0.1-0.3,0.1-0.5l0-0.1c-0.2,0-0.4,0.1-0.6,0.1l-0.5,0
	c0.2-1.1,0.4-1.8,0.5-2.1l-0.1-0.1c-0.3,0.1-0.5,0.3-0.8,0.3c-0.1,0.8-0.2,1.4-0.3,1.8c-0.3,0.1-0.6,0.3-0.9,0.4l0,0.2l0.5,0l0.4,0
	c-0.1,0.7-0.3,1.5-0.5,2.4c-0.1,0.7-0.2,1.1-0.2,1.3c0,0.1,0,0.2,0.1,0.3c0.1,0.1,0.2,0.1,0.3,0.1c0.3,0,0.9-0.4,1.8-1.1l-0.1-0.2
	C119.7,62.3,119.4,62.5,119.2,62.5 M115.9,56.3c0.1,0,0.1,0.1,0.1,0.2c0,0.1,0,0.4-0.1,0.7c-0.1,0.6-0.2,1.2-0.3,1.8l-0.1,0.5
	c-0.1,0.6-0.3,1.4-0.5,2.3l-0.2,0.9c0,0.1,0,0.2,0,0.2c0,0.1,0,0.2,0.1,0.3c0.1,0.1,0.1,0.1,0.2,0.1c0.1,0,0.3-0.1,0.5-0.2
	c0.4-0.2,0.8-0.5,1.2-0.9l-0.1-0.2c-0.5,0.4-0.8,0.6-0.9,0.6c0,0-0.1,0-0.1-0.1c0,0,0-0.1,0-0.2c0-0.1,0-0.4,0.1-0.7l0.5-2.6
	l0.1-0.5l0.6-2.9l-0.1-0.1c-0.4,0.2-0.9,0.3-1.6,0.4l0,0.2C115.6,56.2,115.8,56.2,115.9,56.3 M109.7,58.9c0,0,0.1,0,0.1,0.1
	c0,0,0,0.1,0,0.2c0,0.2-0.2,1-0.5,2.4c-0.1,0.6-0.2,1-0.2,1.2c0,0.2,0,0.3,0.1,0.4c0.1,0.1,0.2,0.1,0.3,0.1c0.2,0,0.5-0.2,1-0.5
	c0.6-0.5,1.2-1.1,1.7-1.9l-0.3,1.4c-0.1,0.3-0.1,0.5-0.1,0.6c0,0.1,0,0.2,0.1,0.3c0,0.1,0.1,0.1,0.2,0.1c0.3,0,0.8-0.4,1.6-1.1
	l-0.1-0.2l-0.3,0.2c-0.3,0.2-0.5,0.3-0.6,0.3c0,0-0.1,0-0.1-0.1c0,0,0-0.1,0-0.2c0-0.2,0.1-0.6,0.2-1.2c0.2-0.9,0.4-1.8,0.7-2.8
	l-0.1-0.1c-0.2,0.1-0.4,0.1-0.7,0.2c-0.1,0.9-0.4,1.6-0.7,2.2c-0.3,0.6-0.7,1.1-1.3,1.6c-0.3,0.3-0.5,0.4-0.7,0.4
	c-0.1,0-0.1,0-0.1-0.1c0,0,0-0.1,0-0.2c0-0.3,0.2-1.1,0.5-2.4c0.2-0.9,0.3-1.4,0.3-1.5c0-0.1,0-0.1-0.1-0.2c0,0-0.1-0.1-0.2-0.1
	c-0.3,0-0.8,0.3-1.7,0.9l0.1,0.2C109.3,59,109.6,58.9,109.7,58.9 M103,59.4c0.1-0.2,0.3-0.4,0.5-0.6c0.2-0.1,0.4-0.2,0.6-0.2
	c0.2,0,0.3,0,0.4,0.1c0.1,0.1,0.1,0.2,0.1,0.4c0,0.3-0.2,0.6-0.5,0.9c-0.3,0.3-0.8,0.5-1.5,0.6C102.7,60.2,102.9,59.7,103,59.4
	 M103.9,62.6c-0.2,0.1-0.5,0.1-0.6,0.1c-0.2,0-0.4-0.1-0.6-0.2c-0.2-0.2-0.2-0.4-0.2-0.7c0-0.2,0-0.5,0.1-0.9c1.9-0.4,2.8-1,2.8-1.9
	c0-0.2-0.1-0.4-0.2-0.6c-0.2-0.2-0.4-0.2-0.7-0.2c-0.2,0-0.5,0.1-0.8,0.2c-0.5,0.2-0.9,0.5-1.1,0.7c-0.2,0.2-0.4,0.6-0.6,1.2
	c-0.2,0.6-0.3,1.1-0.3,1.5c0,0.4,0.1,0.8,0.3,1c0.2,0.2,0.5,0.3,0.9,0.3c0.3,0,0.6-0.1,0.9-0.2c0.3-0.1,0.7-0.4,1.2-0.8L105,62
	C104.5,62.3,104.2,62.5,103.9,62.6 M97,63.1c0.2-1,0.4-1.8,0.6-2.3c0.3-0.5,0.7-1,1.2-1.4c0.4-0.3,0.7-0.5,0.9-0.5
	c0.1,0,0.1,0,0.2,0.1s0.1,0.1,0.1,0.2c0,0.2-0.2,1.1-0.6,2.6c-0.2,0.6-0.2,1-0.2,1.1c0,0.1,0,0.2,0.1,0.3c0.1,0.1,0.1,0.1,0.2,0.1
	c0.1,0,0.2,0,0.4-0.1c0.2-0.1,0.6-0.4,1.3-0.8l-0.1-0.2l-0.3,0.2c-0.2,0.1-0.3,0.2-0.4,0.3c-0.1,0-0.1,0-0.2,0
	c-0.1,0-0.2-0.1-0.2-0.2c0-0.2,0.1-0.7,0.3-1.5c0.2-1,0.4-1.6,0.5-2c0-0.1,0-0.3,0-0.4c0-0.1,0-0.2-0.1-0.3
	c-0.1-0.1-0.1-0.1-0.2-0.1c-0.3,0-0.7,0.2-1.2,0.5c-0.5,0.3-1.1,0.9-1.7,1.7c0.1-0.6,0.4-2.2,1-4.7l-0.1-0.1
	c-0.6,0.2-1.1,0.3-1.7,0.4l0,0.2c0.4,0,0.7,0,0.7,0c0.1,0,0.1,0.1,0.1,0.3c0,0.1-0.1,0.8-0.3,2c-0.4,2.2-0.8,3.8-1,4.7l0.1,0.1
	C96.5,63.2,96.8,63.1,97,63.1 M94.4,62.5c-0.1,0-0.1,0-0.1-0.1c0,0-0.1-0.1-0.1-0.2c0-0.3,0.2-1.3,0.6-3.2c0.4,0,0.8,0,1.1,0
	c0-0.2,0.1-0.3,0.1-0.5l0-0.1c-0.2,0-0.4,0.1-0.6,0.1l-0.5,0c0.2-1.1,0.4-1.8,0.5-2.1l-0.1-0.1c-0.3,0.1-0.5,0.3-0.8,0.3
	c-0.1,0.8-0.2,1.4-0.3,1.8c-0.3,0.1-0.6,0.3-0.9,0.4l0,0.2l0.5,0l0.4,0c-0.1,0.7-0.3,1.5-0.5,2.4c-0.1,0.7-0.2,1.1-0.2,1.3
	c0,0.1,0,0.2,0.1,0.3c0.1,0.1,0.2,0.1,0.3,0.1c0.3,0,0.9-0.4,1.8-1.1l-0.1-0.2C94.9,62.3,94.6,62.5,94.4,62.5 M85.9,63
	c0.2,0.1,0.4,0.2,0.5,0.2c0.2,0,0.4,0.1,0.5,0.1c0.6,0,1.1-0.2,1.5-0.6c0.5-0.4,0.7-0.8,0.7-1.3c0-0.3-0.1-0.6-0.3-0.7
	c-0.1-0.1-0.5-0.2-1-0.3c-0.4-0.1-0.7-0.2-0.8-0.2c-0.2-0.1-0.2-0.3-0.2-0.5c0-0.3,0.1-0.5,0.3-0.7c0.2-0.2,0.5-0.3,0.8-0.3
	c0.3,0,0.6,0.1,0.8,0.3c0.1,0.1,0.1,0.2,0.1,0.3c0,0.1,0,0.2,0,0.4h0.2c0-0.5,0.1-0.9,0.2-1.2c-0.2-0.1-0.3-0.2-0.5-0.2
	c-0.2,0-0.3-0.1-0.5-0.1c-0.3,0-0.6,0.1-0.9,0.3c-0.4,0.2-0.7,0.5-0.9,0.7c-0.2,0.2-0.2,0.5-0.2,0.7c0,0.3,0.1,0.6,0.3,0.8
	c0.2,0.1,0.6,0.2,1.2,0.3c0.3,0.1,0.6,0.1,0.7,0.2c0.1,0.1,0.2,0.3,0.2,0.5c0,0.3-0.1,0.6-0.3,0.8c-0.2,0.2-0.5,0.3-0.8,0.3
	c-0.2,0-0.4,0-0.6-0.1c-0.2-0.1-0.4-0.2-0.5-0.3l0-0.4l0-0.5h-0.3C86.1,62.1,86,62.6,85.9,63 M83.8,58.9c0.1,0,0.1,0.1,0.1,0.2
	c0,0.3-0.2,1-0.5,2.4c-0.2,0.7-0.3,1.1-0.3,1.3c0,0.2,0,0.3,0.1,0.3c0.1,0.1,0.1,0.1,0.2,0.1c0.1,0,0.2,0,0.4-0.1
	c0.3-0.2,0.7-0.5,1.2-0.8L85,62.1c-0.4,0.3-0.7,0.5-0.8,0.5c-0.1,0-0.2-0.1-0.2-0.2c0-0.3,0.2-1.2,0.6-2.7c0.2-0.6,0.2-1,0.2-1.2
	c0-0.1,0-0.2-0.1-0.2c0,0-0.1-0.1-0.2-0.1c-0.3,0-0.8,0.3-1.6,0.9l0.1,0.2C83.5,59,83.7,58.9,83.8,58.9 M84.4,56.8
	c0.1,0.1,0.2,0.1,0.3,0.1c0.1,0,0.3-0.1,0.4-0.2c0.1-0.1,0.2-0.3,0.2-0.5c0-0.1,0-0.2-0.1-0.3c-0.1-0.1-0.2-0.1-0.3-0.1
	c-0.1,0-0.3,0.1-0.4,0.2c-0.1,0.1-0.2,0.3-0.2,0.5C84.3,56.6,84.3,56.7,84.4,56.8 M75.6,58.9c0.1,0,0.1,0,0.2,0.1
	c0,0.1,0.1,0.3,0.1,0.6c0,0.4,0,1-0.1,1.7c0,0.5-0.1,0.9-0.1,1.1c0,0.3,0,0.5,0.1,0.6c0.1,0.1,0.2,0.2,0.3,0.2
	c0.1,0,0.3-0.1,0.6-0.3c0.4-0.3,0.8-0.9,1.4-1.6l-0.5,1.9c-0.2,0.5-0.3,1-0.5,1.3s-0.3,0.6-0.5,0.7c-0.1,0.1-0.3,0.2-0.4,0.3
	c-0.1,0-0.2,0.1-0.4,0.1c-0.2,0-0.3-0.1-0.5-0.2c-0.1-0.1-0.2-0.3-0.2-0.5l0-0.2l-0.1-0.1c-0.2,0.2-0.4,0.3-0.5,0.3l0,0.2
	c0,0.3,0.1,0.5,0.3,0.6c0.2,0.2,0.4,0.2,0.7,0.2c0.2,0,0.5-0.1,0.7-0.2c0.2-0.1,0.5-0.3,0.8-0.6c0.3-0.3,0.6-0.7,0.8-1.1
	c0.2-0.5,0.4-1,0.6-1.6l0.7-2.3c0.3-0.9,0.5-1.5,0.7-1.9l-0.1-0.1c-0.2,0.1-0.5,0.1-0.8,0.2c-0.2,1.2-0.6,2.1-1,2.8
	c-0.5,0.8-1,1.3-1.3,1.3c-0.1,0-0.1,0-0.2-0.1c0-0.1-0.1-0.2-0.1-0.4c0-0.3,0-0.9,0.1-1.8c0.1-0.8,0.1-1.3,0.1-1.5
	c0-0.2,0-0.3-0.1-0.4c-0.1-0.1-0.1-0.1-0.2-0.1c-0.1,0-0.2,0-0.4,0.1c-0.3,0.1-0.6,0.4-1.2,0.9l0.1,0.2
	C75.2,59.1,75.5,58.9,75.6,58.9 M72.8,62.5c-0.1,0-0.1,0-0.1-0.1c0,0,0-0.1,0-0.2c0-0.3,0.2-1.3,0.6-3.2c0.4,0,0.8,0,1.1,0
	c0-0.2,0.1-0.3,0.1-0.5l0-0.1c-0.2,0-0.4,0.1-0.6,0.1l-0.5,0c0.2-1.1,0.4-1.8,0.5-2.1l-0.1-0.1c-0.3,0.1-0.5,0.3-0.8,0.3
	c-0.1,0.8-0.2,1.4-0.3,1.8c-0.3,0.1-0.6,0.3-0.9,0.4l0,0.2l0.5,0l0.4,0c-0.1,0.7-0.3,1.5-0.5,2.4c-0.1,0.7-0.2,1.1-0.2,1.3
	c0,0.1,0,0.2,0.1,0.3c0.1,0.1,0.2,0.1,0.3,0.1c0.3,0,0.9-0.4,1.8-1.1l-0.1-0.2C73.3,62.3,72.9,62.5,72.8,62.5 M69.1,58.9
	c0.1,0,0.1,0.1,0.1,0.2c0,0.3-0.2,1-0.5,2.4c-0.2,0.7-0.3,1.1-0.3,1.3c0,0.2,0,0.3,0.1,0.3c0.1,0.1,0.1,0.1,0.2,0.1
	c0.1,0,0.2,0,0.4-0.1c0.3-0.2,0.7-0.5,1.2-0.8l-0.1-0.2c-0.4,0.3-0.7,0.5-0.8,0.5c-0.1,0-0.2-0.1-0.2-0.2c0-0.3,0.2-1.2,0.6-2.7
	c0.2-0.6,0.2-1,0.2-1.2c0-0.1,0-0.2-0.1-0.2c0,0-0.1-0.1-0.2-0.1c-0.3,0-0.8,0.3-1.6,0.9l0.1,0.2C68.8,59,69,58.9,69.1,58.9
	 M69.7,56.8c0.1,0.1,0.2,0.1,0.3,0.1c0.1,0,0.3-0.1,0.4-0.2c0.1-0.1,0.2-0.3,0.2-0.5c0-0.1,0-0.2-0.1-0.3c-0.1-0.1-0.2-0.1-0.3-0.1
	c-0.1,0-0.3,0.1-0.4,0.2c-0.1,0.1-0.2,0.3-0.2,0.5C69.6,56.6,69.6,56.7,69.7,56.8 M67.7,58.5c-0.2-0.1-0.3-0.2-0.4-0.2
	c-0.1,0-0.3-0.1-0.4-0.1c-0.3,0-0.5,0.1-0.8,0.2c-0.5,0.2-0.9,0.5-1.2,0.7c-0.3,0.3-0.5,0.6-0.7,1.1c-0.2,0.5-0.2,1-0.2,1.5
	c0,0.5,0.1,0.9,0.3,1.1c0.2,0.3,0.5,0.4,0.9,0.4c0.3,0,0.6-0.1,0.9-0.2c0.3-0.1,0.7-0.4,1.2-0.9l-0.1-0.2c-0.4,0.3-0.7,0.5-1,0.6
	c-0.3,0.1-0.5,0.2-0.7,0.2c-0.3,0-0.5-0.1-0.6-0.3c-0.2-0.2-0.2-0.5-0.2-0.8c0-0.6,0.1-1.1,0.3-1.6c0.2-0.5,0.4-0.9,0.6-1
	c0.2-0.2,0.5-0.2,0.8-0.2c0.3,0,0.5,0.1,0.7,0.2c0.1,0.1,0.2,0.2,0.2,0.3c0,0.1,0,0.3,0,0.6h0.2C67.5,59.3,67.6,58.9,67.7,58.5
	 M61.7,58.9c0.1,0,0.1,0.1,0.1,0.2c0,0.3-0.2,1-0.5,2.4c-0.2,0.7-0.3,1.1-0.3,1.3c0,0.2,0,0.3,0.1,0.3c0.1,0.1,0.1,0.1,0.2,0.1
	c0.1,0,0.2,0,0.4-0.1c0.3-0.2,0.7-0.5,1.2-0.8l-0.1-0.2c-0.4,0.3-0.7,0.5-0.8,0.5c-0.1,0-0.2-0.1-0.2-0.2c0-0.3,0.2-1.2,0.6-2.7
	c0.2-0.6,0.2-1,0.2-1.2c0-0.1,0-0.2-0.1-0.2c0,0-0.1-0.1-0.2-0.1c-0.3,0-0.8,0.3-1.6,0.9l0.1,0.2C61.4,59,61.6,58.9,61.7,58.9
	 M62.3,56.8c0.1,0.1,0.2,0.1,0.3,0.1c0.1,0,0.3-0.1,0.4-0.2c0.1-0.1,0.2-0.3,0.2-0.5c0-0.1,0-0.2-0.1-0.3c-0.1-0.1-0.2-0.1-0.3-0.1
	c-0.1,0-0.3,0.1-0.4,0.2c-0.1,0.1-0.2,0.3-0.2,0.5C62.2,56.6,62.2,56.7,62.3,56.8 M59,56.3c0.1,0,0.1,0.1,0.1,0.2
	c0,0.1,0,0.4-0.1,0.7c-0.1,0.6-0.2,1.2-0.3,1.8l-0.1,0.5c-0.1,0.6-0.3,1.4-0.5,2.3l-0.2,0.9c0,0.1,0,0.2,0,0.2c0,0.1,0,0.2,0.1,0.3
	c0.1,0.1,0.1,0.1,0.2,0.1c0.1,0,0.3-0.1,0.5-0.2c0.4-0.2,0.8-0.5,1.2-0.9L59.8,62c-0.5,0.4-0.8,0.6-0.9,0.6c0,0-0.1,0-0.1-0.1
	c0,0,0-0.1,0-0.2c0-0.1,0-0.4,0.1-0.7l0.5-2.6l0.1-0.5l0.6-2.9l-0.1-0.1c-0.4,0.2-0.9,0.3-1.6,0.4l0,0.2
	C58.7,56.2,58.9,56.2,59,56.3 M53.5,62.2c0.1-0.8,0.3-1.3,0.4-1.6c0.2-0.6,0.5-1,0.9-1.3c0.4-0.3,0.7-0.5,1-0.5c0.1,0,0.2,0,0.3,0.1
	c0.1,0.1,0.1,0.2,0.1,0.4c0,0.6-0.1,1.2-0.4,1.8c-0.2,0.7-0.5,1.1-0.7,1.3c-0.2,0.2-0.5,0.3-0.8,0.3c-0.3,0-0.6-0.1-0.9-0.3
	L53.5,62.2z M53.1,58.9c0,0,0.1,0,0.1,0.1c0,0,0,0.1,0,0.2c0,0.2-0.1,0.7-0.2,1.5c-0.4,2.2-0.7,3.9-1.1,5.4l0.1,0.1
	c0.2-0.1,0.5-0.1,0.8-0.1c0.1-0.7,0.2-1.6,0.5-2.7c0.3,0.1,0.5,0.1,0.6,0.1c0.3,0,0.6-0.1,1-0.3c0.4-0.2,0.7-0.5,0.9-0.7
	c0.3-0.2,0.5-0.6,0.7-1.2c0.2-0.6,0.3-1.1,0.3-1.7c0-0.3-0.1-0.6-0.2-0.9c-0.1-0.1-0.2-0.2-0.4-0.2c-0.2,0-0.5,0.1-0.8,0.2
	c-0.3,0.1-0.6,0.4-0.9,0.6c-0.3,0.3-0.6,0.6-0.8,1.1c0.2-0.9,0.3-1.5,0.3-1.6c0-0.1,0-0.2-0.1-0.2c0-0.1-0.1-0.1-0.2-0.1
	c-0.1,0-0.2,0-0.4,0.1c-0.2,0.1-0.7,0.4-1.3,0.8l0.1,0.2C52.7,59,53,58.9,53.1,58.9 M45.1,58.9c0,0,0.1,0,0.1,0.1c0,0,0,0.1,0,0.2
	c0,0.2-0.1,0.7-0.2,1.3c-0.1,0.8-0.4,1.7-0.7,2.7l0.1,0.1c0.2-0.1,0.5-0.1,0.7-0.1c0.2-1.1,0.4-2,0.7-2.5c0.2-0.5,0.6-1,1.1-1.4
	c0.3-0.2,0.5-0.4,0.7-0.4c0.1,0,0.1,0,0.1,0.1c0,0,0,0.1,0,0.2c0,0.3,0,0.7-0.1,1.2c-0.1,0.6-0.3,1.5-0.7,2.8l0.1,0.1
	c0.3-0.1,0.5-0.1,0.7-0.1c0.2-1.1,0.4-1.9,0.6-2.4c0.3-0.5,0.6-1,1.1-1.4c0.4-0.3,0.7-0.4,0.9-0.4c0,0,0.1,0,0.1,0c0,0,0,0.1,0,0.1
	c0,0.4-0.2,1.2-0.5,2.4c-0.2,0.8-0.3,1.3-0.3,1.4c0,0.1,0,0.2,0.1,0.3c0.1,0.1,0.1,0.1,0.2,0.1c0.1,0,0.2,0,0.4-0.1
	c0.2-0.1,0.6-0.4,1.2-0.8l-0.1-0.2c-0.3,0.2-0.5,0.3-0.7,0.4c-0.1,0-0.1,0.1-0.2,0.1c0,0-0.1,0-0.1-0.1c0,0,0-0.1,0-0.1
	c0-0.1,0.1-0.6,0.3-1.4c0.4-1.5,0.6-2.3,0.6-2.5c0-0.1,0-0.2-0.1-0.2c0,0-0.1-0.1-0.2-0.1c-0.2,0-0.4,0.1-0.7,0.2
	c-0.4,0.2-0.8,0.4-1.1,0.7c-0.3,0.3-0.7,0.7-1,1.2c0.2-1.1,0.4-1.7,0.4-1.9c0-0.1,0-0.2-0.1-0.2c-0.1-0.1-0.1-0.1-0.2-0.1
	c-0.3,0-0.7,0.2-1.2,0.5c-0.5,0.4-1,0.9-1.5,1.6c0.1-0.5,0.2-1,0.3-1.3c0.1-0.3,0.1-0.5,0.1-0.6c0-0.1,0-0.2-0.1-0.2
	c0,0-0.1-0.1-0.2-0.1c-0.1,0-0.3,0-0.4,0.1c-0.3,0.1-0.7,0.4-1.2,0.8l0.1,0.2C44.7,59,45,58.9,45.1,58.9 M42.1,58.9
	c0.1,0,0.1,0.1,0.1,0.2c0,0.3-0.2,1-0.5,2.4c-0.2,0.7-0.3,1.1-0.3,1.3c0,0.2,0,0.3,0.1,0.3c0.1,0.1,0.1,0.1,0.2,0.1
	c0.1,0,0.2,0,0.4-0.1c0.3-0.2,0.7-0.5,1.2-0.8l-0.1-0.2c-0.4,0.3-0.7,0.5-0.8,0.5c-0.1,0-0.2-0.1-0.2-0.2c0-0.3,0.2-1.2,0.6-2.7
	c0.2-0.6,0.2-1,0.2-1.2c0-0.1,0-0.2-0.1-0.2c0,0-0.1-0.1-0.2-0.1c-0.3,0-0.8,0.3-1.6,0.9l0.1,0.2C41.8,59,42,58.9,42.1,58.9
	 M42.7,56.8c0.1,0.1,0.2,0.1,0.3,0.1c0.1,0,0.3-0.1,0.4-0.2c0.1-0.1,0.2-0.3,0.2-0.5c0-0.1,0-0.2-0.1-0.3c-0.1-0.1-0.2-0.1-0.3-0.1
	c-0.1,0-0.3,0.1-0.4,0.2c-0.1,0.1-0.2,0.3-0.2,0.5C42.6,56.6,42.6,56.7,42.7,56.8 M35.5,62.8c0.3,0.1,0.5,0.2,0.8,0.3
	c0.3,0.1,0.6,0.1,0.9,0.1c0.8,0,1.5-0.3,2.1-0.8c0.6-0.5,0.9-1.1,0.9-1.8c0-0.3-0.1-0.5-0.2-0.7c-0.1-0.2-0.3-0.4-0.4-0.5
	c-0.2-0.1-0.5-0.2-1-0.3c-0.5-0.1-0.8-0.2-1-0.3c-0.2-0.1-0.3-0.2-0.4-0.4C37,58.3,37,58.1,37,57.9c0-0.5,0.1-0.8,0.4-1.1
	c0.3-0.3,0.7-0.4,1.2-0.4c0.3,0,0.5,0,0.6,0.1c0.2,0.1,0.3,0.2,0.5,0.4l0,0.4l0,0.4h0.3c0-0.5,0.1-0.9,0.3-1.4
	c-0.2-0.1-0.4-0.2-0.6-0.3c-0.2,0-0.4-0.1-0.7-0.1c-0.8,0-1.5,0.2-2,0.7c-0.5,0.5-0.8,1-0.8,1.7c0,0.3,0.1,0.6,0.2,0.8
	c0.1,0.2,0.3,0.4,0.5,0.5c0.2,0.1,0.6,0.3,1.1,0.4c0.5,0.1,0.8,0.2,1,0.4c0.2,0.2,0.3,0.4,0.3,0.8c0,0.5-0.2,0.9-0.5,1.2
	c-0.3,0.3-0.8,0.5-1.3,0.5c-0.3,0-0.5,0-0.7-0.1c-0.2-0.1-0.5-0.2-0.7-0.4l0-0.3c0-0.2,0-0.5,0-0.7h-0.3
	C35.7,61.8,35.6,62.3,35.5,62.8 M32.7,62.3c-0.1,0.4-0.2,0.8-0.3,1.1c-0.1,0.3-0.3,0.7-0.6,1l0.1,0.1l0.4-0.1
	c0.6-0.7,1.1-1.5,1.5-2.3l-0.1-0.1C33.3,62.2,33,62.3,32.7,62.3 M30.7,62.3c-0.1,0.4-0.2,0.8-0.3,1.1c-0.1,0.3-0.3,0.7-0.6,1
	l0.1,0.1l0.3-0.1c0.6-0.7,1.1-1.5,1.5-2.3l-0.1-0.1C31.3,62.2,31,62.3,30.7,62.3"/>
</svg>
